<svg width="36" height="36" viewBox="0 0 36 36" fill="none" xmlns="http://www.w3.org/2000/svg">
<g clip-path="url(#clip0)">
<path d="M18.0199 16.3304C17.3571 16.3304 16.8198 16.8677 16.8198 17.5305C16.8198 18.0097 17.1014 18.422 17.5074 18.6144V20.0732C17.5074 20.3561 17.7368 20.5856 18.0198 20.5856C18.3028 20.5856 18.5322 20.3562 18.5322 20.0732V18.6144C18.9383 18.422 19.2199 18.0097 19.2199 17.5305C19.2199 16.8677 18.6826 16.3304 18.0199 16.3304Z" fill="white"/>
<path d="M30.8068 7.81517C28.6012 6.94238 26.8505 5.3349 25.8773 3.28895C25.6127 2.73256 25.0406 2.37299 24.4198 2.37299H11.5806C10.9599 2.37299 10.3878 2.73249 10.1232 3.28895C9.15004 5.3349 7.39933 6.94238 5.1937 7.81517C4.57502 8.05993 4.17529 8.64971 4.17529 9.31761V12.4403C4.17529 16.5339 5.36899 20.5776 7.62736 24.1346C9.90766 27.7263 13.2119 30.7281 17.1827 32.8151L17.2474 32.8491C17.4831 32.973 17.7417 33.0349 18.0003 33.0349C18.2587 33.0349 18.5174 32.973 18.753 32.8492L18.8179 32.8151C22.7887 30.728 26.0929 27.7263 28.3733 24.1346C30.6316 20.5775 31.8253 16.5338 31.8253 12.4403V9.31761C31.8253 8.64964 31.4254 8.05993 30.8068 7.81517ZM30.8006 12.4404C30.8006 16.339 29.6621 20.1928 27.5082 23.5854C25.3237 27.0262 22.1537 29.9042 18.3413 31.9081L18.2764 31.9421C18.1035 32.0331 17.8971 32.0331 17.7241 31.9421L17.6594 31.9082C13.8468 29.9043 10.6769 27.0263 8.49227 23.5854C6.33839 20.1929 5.19989 16.339 5.19989 12.4403V9.31761C5.19989 9.07285 5.34543 8.85706 5.57064 8.76798C8.01822 7.79949 9.96356 6.00997 11.0484 3.7291C11.1441 3.5278 11.353 3.39772 11.5805 3.39772H24.4199C24.6474 3.39772 24.8562 3.5278 24.952 3.7291C26.0369 6.00997 27.9823 7.79949 30.4298 8.76805C30.6551 8.85713 30.8006 9.07292 30.8006 9.31768V12.4404Z" fill="white"/>
<path d="M33.3753 17.3024C33.0993 17.24 32.8249 17.4132 32.7626 17.6892C31.2022 24.5923 26.45 30.5789 19.7242 34.114L18.1612 34.9355C18.0603 34.9886 17.9398 34.9886 17.8389 34.9355L16.2759 34.114C9.53953 30.5734 4.78486 24.5764 3.23102 17.6609C3.16908 17.3848 2.89486 17.2112 2.61888 17.2733C2.34283 17.3353 2.1693 17.6094 2.23132 17.8855C3.85104 25.0947 8.79632 31.3403 15.7992 35.021L17.3621 35.8425C17.5619 35.9474 17.7809 35.9999 18 35.9999C18.219 35.9999 18.4382 35.9474 18.6379 35.8424L20.2009 35.0209C27.1927 31.346 32.1355 25.1112 33.7621 17.9151C33.8244 17.6391 33.6512 17.3648 33.3753 17.3024Z" fill="white"/>
<path d="M33.1259 5.86244C30.3902 5.57381 28.239 3.65351 27.8947 1.19271C27.7996 0.512719 27.2152 0 26.5354 0H9.46465C8.78494 0 8.20057 0.512719 8.10544 1.19271C7.76105 3.65358 5.60991 5.57381 2.87419 5.86244C2.18098 5.93557 1.6582 6.5212 1.6582 7.22461V12.7261C1.6582 13.5256 1.69962 14.3338 1.78132 15.1285C1.80846 15.3922 2.03093 15.5885 2.29038 15.5885C2.30789 15.5885 2.32561 15.5876 2.3434 15.5857C2.62486 15.5569 2.82961 15.3052 2.80064 15.0237C2.72252 14.2637 2.68287 13.4907 2.68287 12.7261V7.22461C2.68287 7.04988 2.81414 6.89906 2.9817 6.88141C6.18626 6.54335 8.71048 4.26241 9.12026 1.33467C9.14543 1.15502 9.29021 1.02466 9.46465 1.02466H26.5353C26.7098 1.02466 26.8547 1.15502 26.8798 1.33467C27.2894 4.26241 29.8137 6.54328 33.0183 6.88141C33.1858 6.89906 33.3171 7.04988 33.3171 7.22461V12.7261C33.3171 13.4826 33.2783 14.2476 33.2018 15C33.1732 15.2815 33.3782 15.5329 33.6597 15.5616C33.941 15.5904 34.1926 15.3851 34.2213 15.1037C34.3013 14.317 34.3418 13.5172 34.3418 12.7261V7.22461C34.3419 6.5212 33.8192 5.93557 33.1259 5.86244Z" fill="white"/>
<path d="M23.8685 12.7874H23.0261V10.3418C23.0261 7.5814 20.7804 5.33569 18.0199 5.33569C15.2595 5.33569 13.0138 7.5814 13.0138 10.3418V12.7874H12.1714C11.273 12.7874 10.542 13.5184 10.542 14.4168V21.7525C10.542 22.6509 11.273 23.3819 12.1714 23.3819H23.8685C24.767 23.3819 25.498 22.6509 25.498 21.7525V14.4168C25.498 13.5184 24.767 12.7874 23.8685 12.7874ZM14.0385 10.3419C14.0385 8.14651 15.8246 6.36043 18.02 6.36043C20.2154 6.36043 22.0015 8.14651 22.0015 10.3419V12.7875H14.0385V10.3419ZM24.4733 21.7525C24.4733 22.0859 24.202 22.3572 23.8685 22.3572H12.1714C11.8379 22.3572 11.5667 22.0859 11.5667 21.7525V14.4168C11.5667 14.0834 11.838 13.8121 12.1714 13.8121H23.8685C24.202 13.8121 24.4733 14.0833 24.4733 14.4168V21.7525Z" fill="white"/>
<path d="M229.837 201.73C227.976 197.951 223.405 196.397 219.626 198.258C209.804 203.094 199.261 205.547 188.289 205.547H-150.289C-189.691 205.547 -221.746 173.492 -221.746 134.09V-90.09C-221.746 -113.194 -210.382 -135.02 -191.346 -148.476C-187.907 -150.907 -187.089 -155.666 -189.522 -159.105C-191.953 -162.545 -196.711 -163.362 -200.152 -160.93C-223.225 -144.62 -237 -118.137 -237 -90.089V134.09C-237 181.902 -198.102 220.8 -150.289 220.8H188.289C201.618 220.8 214.429 217.82 226.365 211.942C230.143 210.081 231.698 205.509 229.837 201.73Z" fill="white"/>
<path d="M188.289 -176.8H-150.29C-156.88 -176.799 -163.457 -176.046 -169.836 -174.563C-173.938 -173.609 -176.49 -169.51 -175.537 -165.408C-174.583 -161.305 -170.487 -158.754 -166.381 -159.707C-161.132 -160.927 -155.718 -161.547 -150.289 -161.548H188.289C227.691 -161.548 259.746 -129.493 259.746 -90.091V134.088C259.746 151.629 253.254 168.531 241.466 181.679C238.654 184.815 238.918 189.637 242.054 192.449C245.184 195.256 250.005 195.004 252.824 191.862C267.124 175.911 275 155.394 275 134.089V-90.089C275 -137.901 236.102 -176.8 188.289 -176.8Z" fill="white"/>
<path d="M19.0001 -151.72C-84.2379 -151.72 -140.628 -32.373 -78.0249 47.477C-75.4259 50.792 -70.6309 51.371 -67.3169 48.772C-64.0019 46.173 -63.4209 41.378 -66.0199 38.064C-121.159 -32.26 -70.9559 -136.466 19.0001 -136.466C78.5351 -136.466 126.97 -88.031 126.97 -28.496C126.97 60.649 24.7801 110.813 -45.7129 57.942C-49.0829 55.416 -53.8629 56.098 -56.3899 59.467C-58.9169 62.836 -58.2339 67.6171 -54.8649 70.144C25.5681 130.47 142.223 73.274 142.223 -28.497C142.224 -96.442 86.9461 -151.72 19.0001 -151.72Z" fill="white"/>
</g>
<defs>
<clipPath id="clip0">
<rect width="36" height="36" fill="white"/>
</clipPath>
</defs>
</svg>
