<svg width="36" height="27" viewBox="0 0 36 27" fill="none" xmlns="http://www.w3.org/2000/svg">
<g clip-path="url(#clip0)">
<path d="M32.8245 25.598C32.6936 25.3323 32.3722 25.223 32.1065 25.3539C31.4159 25.6939 30.6746 25.8664 29.9031 25.8664H6.09687C3.32641 25.8664 1.07255 23.6125 1.07255 20.842V5.07938C1.07255 3.45488 1.87158 1.92024 3.21005 0.974114C3.45185 0.803185 3.50937 0.468567 3.3383 0.226762C3.16737 -0.0151126 2.83282 -0.0725577 2.59087 0.0984423C0.968555 1.24524 0 3.10733 0 5.07945V20.842C0 24.2038 2.73502 26.9388 6.09687 26.9388H29.9031C30.8403 26.9388 31.7411 26.7293 32.5804 26.316C32.846 26.1852 32.9553 25.8637 32.8245 25.598Z" fill="white"/>
<path d="M29.9032 0H6.09683C5.63347 7.03125e-05 5.17102 0.0530156 4.7225 0.157289C4.43408 0.224367 4.25464 0.512578 4.32165 0.801C4.38873 1.08949 4.67673 1.26886 4.96543 1.20185C5.3345 1.11607 5.71517 1.07248 6.0969 1.07241H29.9032C32.6736 1.07241 34.9275 3.32627 34.9275 6.09673V21.8593C34.9275 23.0927 34.471 24.2811 33.6422 25.2056C33.4444 25.4261 33.463 25.7651 33.6835 25.9628C33.9036 26.1602 34.2426 26.1425 34.4408 25.9215C35.4462 24.8 36 23.3574 36 21.8594V6.09687C36 2.73509 33.265 0 29.9032 0Z" fill="white"/>
<path d="M6.9787 12.4584C6.9787 12.086 7.29679 11.861 7.85535 11.861C8.50708 11.861 8.68546 12.1559 8.926 12.1559C9.20528 12.1559 9.32938 11.799 9.32938 11.6206C9.32938 11.1086 8.31309 11 7.85535 11C6.96316 11 5.97014 11.3956 5.97014 12.5515C5.97014 14.3902 8.46046 14.0334 8.46046 15.1971C8.46053 15.6626 8.05708 15.872 7.59161 15.872C6.80032 15.872 6.59085 15.2746 6.27276 15.2746C6.03222 15.2746 5.83057 15.6005 5.83057 15.8177C5.83057 16.2677 6.60639 16.7797 7.62269 16.7797C8.69334 16.7797 9.46909 16.2056 9.46909 15.0962C9.46902 13.0867 6.9787 13.4204 6.9787 12.4584Z" fill="white"/>
<path d="M11.9131 11C10.889 11.0001 10.0977 11.4811 10.0977 12.7766V14.9411C10.0977 16.2367 10.889 16.7177 11.9131 16.7177C12.9372 16.7177 13.7363 16.2367 13.7363 14.9411V12.7766C13.7363 11.481 12.9372 11 11.9131 11ZM12.7277 14.9411C12.7277 15.5539 12.4174 15.8333 11.9131 15.8333C11.401 15.8333 11.1062 15.554 11.1062 14.9411V12.7766C11.1062 12.1637 11.401 11.8844 11.9131 11.8844C12.4174 11.8845 12.7277 12.1637 12.7277 12.7766V14.9411Z" fill="white"/>
<path d="M17.4992 15.7884H15.6062V11.3119C15.6062 10.897 14.5977 10.895 14.5977 11.312V16.3548C14.5977 16.5642 14.8149 16.6729 15.0399 16.6729H17.4992C17.7009 16.6729 17.8017 16.4479 17.8017 16.2307C17.8017 16.0057 17.7008 15.7884 17.4992 15.7884Z" fill="white"/>
<path d="M21.6732 11.4196C21.6732 11.0528 20.8 10.8061 20.6957 11.2024L19.5165 15.4073L18.3295 11.2024C18.2907 11.0549 18.1589 11.0007 17.9882 11.0007C17.7166 11.0007 17.3521 11.1713 17.3521 11.4196C17.3521 11.4351 17.3598 11.4661 17.3676 11.4971L18.865 16.377C18.9425 16.6096 19.2218 16.7183 19.5166 16.7183C19.8114 16.7183 20.0985 16.6096 20.1683 16.377C21.7474 11.1999 21.6732 11.4632 21.6732 11.4196Z" fill="white"/>
<path d="M25.413 15.7867H23.2175V14.2273H24.3967C24.8256 14.2273 24.8135 13.436 24.3967 13.436H23.2175V11.8845H25.413C25.6147 11.8845 25.7311 11.675 25.7311 11.4345C25.7311 11.225 25.6302 11 25.413 11H22.6512C22.4262 11 22.209 11.1087 22.209 11.3181V16.3531C22.209 16.5625 22.4262 16.6711 22.6512 16.6711H25.413C25.6302 16.6711 25.7311 16.4462 25.7311 16.2367C25.7311 15.9961 25.6148 15.7867 25.413 15.7867Z" fill="white"/>
<path d="M28.1366 11H26.7635C26.4997 11 26.3213 11.1474 26.3213 11.3103V16.3609C26.3213 16.5237 26.4997 16.6712 26.7635 16.6712H28.1366C29.1607 16.6712 29.9598 16.1901 29.9598 14.8946V12.7767C29.9598 11.481 29.1607 11 28.1366 11ZM28.9513 14.8946C28.9513 15.4997 28.6488 15.7869 28.1367 15.7869H27.3299V11.8845H28.1367C28.6488 11.8845 28.9513 12.1716 28.9513 12.7767V14.8946Z" fill="white"/>
<path d="M22.4305 9.00269C22.0166 8.97864 21.6175 9.11659 21.3075 9.39222L16.2677 13.8713L14.8502 12.1826C14.5835 11.8649 14.209 11.67 13.7957 11.6339C12.4294 11.5151 11.5788 13.1165 12.4711 14.1797L14.9158 17.0919C15.4745 17.7573 16.4795 17.8385 17.1369 17.2542L23.3708 11.7139C24.3957 10.8031 23.816 9.08446 22.4305 9.00269ZM22.6584 10.9122C16.2105 16.5743 16.4495 16.6019 16.0704 16.5725C15.7109 16.5464 15.8386 16.4437 13.2925 13.4901C13.0178 13.1627 13.2783 12.6649 13.7024 12.7022C14.0499 12.7326 13.9826 12.8889 15.8009 14.9833C15.9963 15.2159 16.3437 15.2384 16.5679 15.0393C22.1896 10.1096 21.991 10.0525 22.3674 10.0732C22.7943 10.0986 22.9765 10.6296 22.6584 10.9122Z" fill="white"/>
<path d="M17.9999 5C10.741 5 6.77608 13.3916 11.1779 19.006C11.3606 19.2391 11.6977 19.2798 11.9308 19.0971C12.1638 18.9144 12.2047 18.5772 12.022 18.3442C8.145 13.3995 11.6749 6.07255 17.9999 6.07255C22.186 6.07255 25.5916 9.47813 25.5916 13.6642C25.5916 19.9322 18.4063 23.4594 13.4498 19.7419C13.2128 19.5643 12.8767 19.6122 12.6991 19.8491C12.5214 20.086 12.5694 20.4221 12.8063 20.5998C18.4617 24.8415 26.664 20.8199 26.664 13.6641C26.6641 8.88674 22.7774 5 17.9999 5Z" fill="white"/>
</g>
<defs>
<clipPath id="clip0">
<rect width="36" height="27" fill="white"/>
</clipPath>
</defs>
</svg>
