<svg width="36" height="36" viewBox="0 0 36 36" fill="none" xmlns="http://www.w3.org/2000/svg">
<path d="M28.5469 1.40625H23.625V0.703125C23.625 0.314789 23.3101 0 22.9219 0H13.0781C12.6899 0 12.375 0.314789 12.375 0.703125V1.40625H7.45312C6.29002 1.40625 5.34375 2.35252 5.34375 3.51562V33.8906C5.34375 35.0537 6.29002 36 7.45312 36H28.5469C29.71 36 30.6562 35.0537 30.6562 33.8906V3.51562C30.6562 2.35252 29.71 1.40625 28.5469 1.40625ZM29.25 33.8906C29.25 34.2783 28.9346 34.5938 28.5469 34.5938H7.45312C7.06542 34.5938 6.75 34.2783 6.75 33.8906V3.51562C6.75 3.12792 7.06542 2.8125 7.45312 2.8125H12.375V3.51562C12.375 3.90396 12.6899 4.21875 13.0781 4.21875H22.9219C23.3101 4.21875 23.625 3.90396 23.625 3.51562V2.8125H28.5469C28.9346 2.8125 29.25 3.12792 29.25 3.51562V33.8906Z" fill="white"/>
<path d="M14.4844 8.4375H15.1875V20.5312C15.1875 22.0821 16.4492 23.3438 18 23.3438C19.5508 23.3438 20.8125 22.0821 20.8125 20.5312V8.4375H21.5156C21.9039 8.4375 22.2188 8.12271 22.2188 7.73438C22.2188 7.34604 21.9039 7.03125 21.5156 7.03125H14.4844C14.0961 7.03125 13.7812 7.34604 13.7812 7.73438C13.7812 8.12271 14.0961 8.4375 14.4844 8.4375ZM18 21.9375C17.2246 21.9375 16.5938 21.3067 16.5938 20.5312V14.0625H19.4062V20.5312C19.4062 21.3067 18.7754 21.9375 18 21.9375ZM19.4062 12.6562H16.5938V8.4375H19.4062V12.6562Z" fill="white"/>
<path d="M11.6719 26.1562H10.2656C9.87736 26.1562 9.5625 26.471 9.5625 26.8594C9.5625 27.2477 9.87736 27.5625 10.2656 27.5625H11.6719C12.0601 27.5625 12.375 27.2477 12.375 26.8594C12.375 26.471 12.0601 26.1562 11.6719 26.1562Z" fill="white"/>
<path d="M25.7344 26.1562H14.4844C14.0961 26.1562 13.7812 26.471 13.7812 26.8594C13.7812 27.2477 14.0961 27.5625 14.4844 27.5625H25.7344C26.1226 27.5625 26.4375 27.2477 26.4375 26.8594C26.4375 26.471 26.1226 26.1562 25.7344 26.1562Z" fill="white"/>
<path d="M11.6719 30.375H10.2656C9.87736 30.375 9.5625 30.6898 9.5625 31.0781C9.5625 31.4665 9.87736 31.7812 10.2656 31.7812H11.6719C12.0601 31.7812 12.375 31.4665 12.375 31.0781C12.375 30.6898 12.0601 30.375 11.6719 30.375Z" fill="white"/>
<path d="M25.7344 30.375H14.4844C14.0961 30.375 13.7812 30.6898 13.7812 31.0781C13.7812 31.4665 14.0961 31.7812 14.4844 31.7812H25.7344C26.1226 31.7812 26.4375 31.4665 26.4375 31.0781C26.4375 30.6898 26.1226 30.375 25.7344 30.375Z" fill="white"/>
</svg>
