<svg width="36" height="36" viewBox="0 0 36 36" fill="none" xmlns="http://www.w3.org/2000/svg">
<g clip-path="url(#clip0)">
<path d="M32.3205 5.82938L18.5392 0.10756C18.194 -0.0357368 17.8059 -0.0358071 17.4608 0.10756L3.67952 5.82938C3.15464 6.04735 2.8125 6.55979 2.8125 7.12812V14.0838C2.8125 23.6613 8.60126 32.2764 17.4686 35.8958C17.8092 36.0348 18.1908 36.0348 18.5314 35.8958C27.3986 32.2765 33.1875 23.6613 33.1875 14.0838V7.12812C33.1875 6.55979 32.8454 6.04735 32.3205 5.82938ZM30.375 14.0838C30.375 22.2256 25.5938 29.7207 18 33.0663C10.6092 29.8101 5.625 22.4463 5.625 14.0838V8.06693L18 2.92892L30.375 8.06693V14.0838ZM16.4457 18.8238L22.49 12.7796C23.0392 12.2304 23.9295 12.2303 24.4787 12.7796C25.0279 13.3288 25.0279 14.2191 24.4787 14.7683L17.44 21.8069C16.8907 22.3562 16.0004 22.356 15.4513 21.8069L11.5213 17.8769C10.9721 17.3277 10.9721 16.4373 11.5213 15.8881C12.0705 15.339 12.9608 15.3389 13.51 15.8881L16.4457 18.8238Z" fill="white"/>
</g>
<defs>
<clipPath id="clip0">
<rect width="36" height="36" fill="white"/>
</clipPath>
</defs>
</svg>
