<svg width="36" height="36" viewBox="0 0 36 36" fill="none" xmlns="http://www.w3.org/2000/svg">
<g clip-path="url(#clip0)">
<path d="M22.5956 4.48564C18.6358 2.48468 13.8657 3.24975 10.7261 6.38935C7.07727 10.0382 6.71206 15.8562 9.8767 19.9227C9.98856 20.0664 10.1558 20.1417 10.3248 20.1417C10.4466 20.1417 10.5693 20.1026 10.6728 20.022C10.9201 19.8295 10.9646 19.4731 10.7722 19.2258C7.95835 15.6102 8.28355 10.4366 11.5286 7.19162C14.3207 4.39937 18.5625 3.71888 22.084 5.49828C22.3636 5.63975 22.7049 5.52739 22.8462 5.24776C22.9875 4.96812 22.8754 4.6269 22.5956 4.48564Z" fill="white"/>
<path d="M27.1259 9.01681C26.9845 8.73717 26.6434 8.62495 26.3636 8.76614C26.084 8.9074 25.9717 9.24856 26.1129 9.52833C27.8911 13.0493 27.2102 17.2906 24.4187 20.082C21.1737 23.3269 16.0001 23.652 12.3845 20.8383C12.1372 20.646 11.7808 20.6904 11.5884 20.9376C11.3959 21.1849 11.4404 21.5413 11.6877 21.7338C13.54 23.1753 15.7557 23.8844 17.9643 23.8844C20.6043 23.8844 23.2343 22.8711 25.2212 20.8843C28.36 17.7455 29.1254 12.9763 27.1259 9.01681Z" fill="white"/>
<path d="M25.6598 6.85598C25.5192 6.69693 25.3715 6.53986 25.2209 6.38925C25.0702 6.23857 24.9132 6.09091 24.7541 5.95035C24.5194 5.74279 24.1608 5.76501 23.9534 5.99978C23.7458 6.23449 23.7678 6.59301 24.0026 6.80051C24.1443 6.92566 24.2842 7.05729 24.4185 7.19151C24.5527 7.32581 24.6843 7.46566 24.8095 7.60734C24.9216 7.73419 25.0778 7.79895 25.2349 7.79895C25.3684 7.79895 25.5024 7.75205 25.6103 7.6567C25.8452 7.44928 25.8672 7.09076 25.6598 6.85598Z" fill="white"/>
<path d="M31.3639 14.6539C31.7422 14.0332 31.7422 13.2623 31.3638 12.6418L30.6174 11.4179C30.5191 11.2566 30.4811 11.065 30.5105 10.8786L30.7329 9.46507C30.8463 8.74472 30.5504 8.03084 29.9607 7.60186L28.804 6.7605C28.6511 6.64919 28.5424 6.48684 28.4979 6.30304L28.161 4.91092C27.99 4.20379 27.4445 3.6583 26.7374 3.48716L25.3452 3.15023C25.1614 3.10572 24.9989 2.99701 24.8878 2.84408L24.0463 1.68709C23.6174 1.09745 22.9034 0.801362 22.1833 0.914846L20.7693 1.13732C20.5828 1.16664 20.3912 1.12867 20.23 1.03037L19.0059 0.283791C18.3853 -0.094632 17.6144 -0.0945617 16.9938 0.283791L15.7698 1.03016C15.6087 1.12853 15.4172 1.16635 15.2305 1.1371L13.817 0.914636C13.0968 0.801292 12.3828 1.09724 11.9539 1.68688L11.1125 2.84359C11.0012 2.99652 10.8388 3.10523 10.6549 3.14973L9.26282 3.4866C8.55582 3.6576 8.0102 4.20316 7.83906 4.91022L7.50212 6.30241C7.45761 6.48621 7.34898 6.6487 7.19598 6.75987L6.03898 7.60137C5.44934 8.0302 5.15347 8.74402 5.26674 9.46437L5.48921 10.8784C5.51853 11.065 5.48056 11.2565 5.38226 11.4177L4.63575 12.6419C4.25747 13.2624 4.25747 14.0334 4.63582 14.6539L5.38219 15.8779C5.48049 16.0392 5.51853 16.2307 5.48914 16.4172L5.26667 17.8307C5.15325 18.551 5.4492 19.265 6.03884 19.6939L7.19555 20.5352C7.34848 20.6464 7.45719 20.8089 7.5017 20.9927L7.83856 22.3848C8.00956 23.0919 8.55512 23.6374 9.26218 23.8086L9.84353 23.9493L5.90926 32.7253C5.82565 32.9118 5.84879 33.1288 5.96994 33.2935C6.09101 33.4581 6.29119 33.545 6.49426 33.5206L9.65987 33.1422L11.4835 35.7571C11.5902 35.9101 11.7644 35.9999 11.9487 35.9999C11.9663 35.9999 11.9842 35.9991 12.0019 35.9975C12.2054 35.9784 12.3829 35.8512 12.4665 35.6648L16.4846 26.7014L16.9937 27.0118C17.304 27.201 17.6518 27.2956 17.9997 27.2956C18.3476 27.2956 18.6955 27.2009 19.0058 27.0118L19.5332 26.6902L23.5563 35.6648C23.6399 35.8513 23.8174 35.9784 24.0209 35.9975C24.0387 35.9992 24.0565 36 24.0742 36C24.2585 36 24.4327 35.9101 24.5394 35.7572L26.363 33.1422L29.5286 33.5207C29.7315 33.5448 29.9318 33.4582 30.0529 33.2935C30.174 33.1289 30.1973 32.9119 30.1136 32.7253L26.1773 23.9445L26.7368 23.8091C27.4438 23.6381 27.9894 23.0926 28.1605 22.3855L28.4975 20.9933C28.542 20.8095 28.6507 20.647 28.8036 20.5359L29.9606 19.6944C30.5502 19.2655 30.8461 18.5517 30.7328 17.8314L30.5104 16.4173C30.4811 16.2308 30.519 16.0392 30.6173 15.8781L31.3639 14.6539ZM11.841 34.2864L10.3958 32.214C10.276 32.0421 10.0711 31.9501 9.86315 31.9752L7.35446 32.2751L10.9389 24.279C11.0045 24.3271 11.0632 24.3849 11.1117 24.4516L11.9532 25.6086C12.0331 25.7185 12.123 25.8181 12.2209 25.9068L10.3342 30.1155C10.2061 30.4015 10.334 30.7371 10.6199 30.8653C10.6952 30.8991 10.774 30.9151 10.8515 30.9151C11.0682 30.9151 11.2752 30.7902 11.3695 30.5797L13.2495 26.3859C13.4345 26.4113 13.625 26.4109 13.8162 26.3808L15.2302 26.1583C15.3148 26.1451 15.4004 26.1463 15.4837 26.16L11.841 34.2864ZM28.6685 32.275L26.1598 31.9752C25.9516 31.9502 25.7469 32.0421 25.6271 32.214L24.1819 34.2864L20.5377 26.1569C20.6141 26.1465 20.6921 26.1465 20.7692 26.1586L22.1827 26.381C22.3816 26.4123 22.5798 26.4113 22.7718 26.3827L24.6533 30.5798C24.7477 30.7904 24.9546 30.9152 25.1713 30.9152C25.2488 30.9152 25.3276 30.8992 25.4029 30.8654C25.6888 30.7373 25.8167 30.4016 25.6886 30.1157L23.7947 25.8909C23.886 25.8062 23.9705 25.7123 24.0458 25.6088L24.8871 24.4521C24.9401 24.3792 25.0051 24.3166 25.0781 24.2661L28.6685 32.275ZM30.3951 14.0631L29.6486 15.2873C29.4106 15.6778 29.3184 16.1418 29.3895 16.5936L29.612 18.0076C29.6588 18.3049 29.5366 18.5996 29.2932 18.7766L28.1361 19.6182C27.7658 19.8877 27.5024 20.2812 27.3947 20.7263L27.0577 22.1185C26.9871 22.4104 26.7619 22.6356 26.47 22.7063L25.0778 23.0431C24.6326 23.1509 24.239 23.4143 23.9695 23.7847L23.1282 24.9414C22.9511 25.1849 22.6565 25.3069 22.359 25.2601L20.9455 25.0376C20.4936 24.9665 20.0296 25.0585 19.639 25.2967L18.4151 26.043C18.1589 26.1991 17.8405 26.1991 17.5845 26.043L16.3603 25.2966C16.0559 25.1109 15.7068 25.0142 15.3537 25.0142C15.2538 25.0142 15.1535 25.0219 15.054 25.0376L13.6399 25.26C13.3425 25.3069 13.0479 25.1846 12.8708 24.9412L12.0293 23.7842C11.7598 23.4139 11.3663 23.1505 10.9211 23.0428L9.52895 22.7059C9.23708 22.6352 9.01187 22.4101 8.94121 22.1181L8.60434 20.726C8.49662 20.2808 8.2333 19.8871 7.86282 19.6177L6.70618 18.7762C6.46276 18.5992 6.34062 18.3044 6.38745 18.0071L6.60992 16.5935C6.68101 16.1416 6.58904 15.6777 6.35089 15.2871L5.60452 14.063C5.44836 13.8069 5.44836 13.4886 5.60452 13.2325L6.35103 12.0083C6.58911 11.6178 6.68115 11.1538 6.61006 10.702L6.38759 9.28803C6.34083 8.99067 6.46304 8.69599 6.70639 8.51895L7.86345 7.67737C8.23379 7.40794 8.49718 7.0144 8.6049 6.56925L8.94184 5.17706C9.0125 4.88519 9.23764 4.65998 9.52958 4.58931L10.9218 4.25245C11.367 4.14473 11.7606 3.88134 12.03 3.51093L12.8713 2.35422C13.0484 2.11079 13.343 1.98852 13.6405 2.03542L15.054 2.25789C15.506 2.32911 15.97 2.23701 16.3605 1.99886L17.5845 1.25249C17.8406 1.09639 18.159 1.09639 18.415 1.25249L19.6392 1.99893C20.0297 2.23715 20.4938 2.32919 20.9455 2.25803L22.3596 2.03556C22.6569 1.98894 22.9516 2.11101 23.1287 2.35436L23.9702 3.51135C24.2397 3.88169 24.6332 4.14508 25.0784 4.2528L26.4706 4.58974C26.7624 4.6604 26.9876 4.88554 27.0583 5.17748L27.3952 6.5696C27.5029 7.01482 27.7662 7.4085 28.1367 7.67794L29.2934 8.5193C29.5368 8.69635 29.659 8.9911 29.6121 9.28845L29.3897 10.702C29.3186 11.1539 29.4105 11.6178 29.6487 12.0084L30.3951 13.2325C30.5513 13.4886 30.5513 13.8069 30.3951 14.0631Z" fill="white"/>
<path d="M24.6385 11.8827C24.5135 11.4978 24.1862 11.2291 23.7843 11.1814L20.3705 10.7766L18.9307 7.65509C18.7612 7.28763 18.4045 7.05933 17.9997 7.05933C17.5951 7.05933 17.2383 7.28763 17.0688 7.65509L15.6289 10.7767L12.2152 11.1815C11.8133 11.2291 11.4859 11.4979 11.361 11.8828C11.236 12.2675 11.3428 12.6773 11.6398 12.952L14.1637 15.286L13.4938 18.6578C13.4149 19.0548 13.5693 19.4491 13.8968 19.6869C14.0774 19.8181 14.287 19.8846 14.498 19.8846C14.6695 19.8846 14.8417 19.8407 15 19.7521L17.9997 18.0731L20.9994 19.7521C21.3525 19.9498 21.7752 19.9249 22.1026 19.687C22.4301 19.4491 22.5845 19.0547 22.5056 18.6578L21.8357 15.2861L24.3595 12.9521C24.6567 12.6774 24.7635 12.2676 24.6385 11.8827ZM20.8322 14.6687C20.6874 14.8026 20.6226 15.0023 20.6609 15.1958L21.3465 18.6461L18.2768 16.9278C18.1907 16.8797 18.0952 16.8556 17.9997 16.8556C17.9041 16.8556 17.8087 16.8796 17.7226 16.9278L14.6529 18.6461L15.3384 15.1958C15.3769 15.0022 15.312 14.8026 15.1671 14.6687L12.5844 12.2802L16.078 11.866C16.2739 11.8428 16.4437 11.7194 16.5263 11.5403L17.9997 8.34591L19.4731 11.5403C19.5558 11.7194 19.7256 11.8428 19.9215 11.866L23.4149 12.2802L20.8322 14.6687Z" fill="white"/>
</g>
<defs>
<clipPath id="clip0">
<rect width="36" height="36" fill="white"/>
</clipPath>
</defs>
</svg>
