<svg width="37" height="36" viewBox="0 0 37 36" fill="none" xmlns="http://www.w3.org/2000/svg">
<g clip-path="url(#clip0)">
<path d="M27.3498 24.8529L22.1729 27.512C21.7246 27.0603 21.1039 26.7801 20.4188 26.7801H16.8515C16.6928 26.7801 16.6347 26.7704 16.6173 26.7662C16.5849 26.7443 16.5043 26.6684 16.4389 26.6068L16.4048 26.5747C13.5012 23.8404 11.0476 24.0138 8.25716 25.1152C7.82047 25.2874 7.81217 25.2878 7.37935 25.3075L6.59351 25.3085C6.3482 24.6132 5.68546 24.1135 4.90806 24.1135H2.28328C1.29783 24.1135 0.496094 24.9161 0.496094 25.9027V32.7864C0.496094 33.772 1.29783 34.5737 2.28328 34.5737H4.90799C5.68546 34.5737 6.3482 34.0745 6.59351 33.3799H8.03688C8.20028 33.394 8.3596 33.4273 8.51491 33.4796L15.3023 35.2946C15.5995 35.3751 15.8724 35.4544 16.1363 35.5312C17.0129 35.7859 17.7497 36 18.518 35.9999C19.386 35.9999 20.294 35.7266 21.4886 34.9298C21.4945 34.9258 21.5004 34.9218 21.5063 34.9176L29.875 28.9582C30.9751 28.1734 31.2957 26.7567 30.6206 25.6624C29.9533 24.5836 28.5467 24.2357 27.3498 24.8529ZM5.28899 32.7865C5.28899 32.9931 5.11448 33.1676 4.90799 33.1676H2.28328C2.07671 33.1676 1.90227 32.9931 1.90227 32.7865V25.9028C1.90227 25.6951 2.07678 25.5197 2.28328 25.5197H4.90799C5.11456 25.5197 5.28899 25.6951 5.28899 25.9028V32.7865ZM29.0587 27.8133L20.6993 33.766C18.9979 34.8984 18.2737 34.6879 16.5285 34.1809C16.2587 34.1025 15.9796 34.0214 15.6679 33.9368L8.87862 32.1214C8.60547 32.0367 8.3248 31.9874 8.03674 31.9738H6.69517V26.7155L7.44333 26.7123C7.97845 26.6879 8.14438 26.6713 8.77323 26.4233C11.1919 25.4686 13.0583 25.3549 15.4413 27.599L15.475 27.6307C15.8853 28.017 16.1396 28.1863 16.8515 28.1863H20.4188C21.0069 28.1863 21.4854 28.6648 21.4854 29.2529C21.4854 29.84 21.0069 30.3176 20.4188 30.3176H14.6354C14.2471 30.3176 13.9323 30.6324 13.9323 31.0207C13.9323 31.409 14.2471 31.7238 14.6354 31.7238H20.4188C21.7823 31.7238 22.8916 30.6154 22.8916 29.2529C22.8916 29.0807 22.8737 28.9125 22.84 28.7501L27.9931 26.1031C28.4629 25.8611 29.1054 25.8859 29.4242 26.4015C29.7053 26.8571 29.5479 27.4643 29.0587 27.8133Z" fill="white"/>
<path d="M16.6802 16.6301C15.9191 17.0009 15.3932 17.7823 15.3932 18.6843C15.3932 19.6788 16.0336 20.5262 16.9238 20.8378V21.885C16.9238 23.1672 17.9661 24.2104 19.2471 24.2104H22.362C23.6442 24.2104 24.6873 23.1672 24.6873 21.885V20.8378C25.5775 20.5262 26.2179 19.6787 26.2179 18.6843C26.2179 17.7822 25.692 17.0008 24.9309 16.6301C25.2388 15.4863 25.8629 14.6346 26.5193 13.7413C27.5291 12.367 28.6736 10.8094 28.6711 8.06571C28.6711 7.82075 28.661 7.56932 28.641 7.31839C28.6102 6.93127 28.2722 6.64335 27.8844 6.67323C27.4973 6.70403 27.2085 7.04278 27.2393 7.4299C27.2563 7.64385 27.2649 7.85773 27.2649 8.06627C27.267 10.3488 26.3534 11.5922 25.3861 12.9086C24.6521 13.9075 23.8968 14.9372 23.5369 16.4006H18.074C17.7141 14.9373 16.9585 13.9077 16.2244 12.9089C15.2568 11.5925 14.343 10.3491 14.346 8.06648C14.3491 5.63259 15.3918 4.09549 16.2661 3.23463C17.47 2.04922 19.1189 1.38297 20.7955 1.40659C20.8023 1.40666 20.8089 1.40666 20.8157 1.40659C22.1817 1.38585 23.5518 1.83112 24.6702 2.65802C24.9823 2.88885 25.4228 2.82283 25.6536 2.51066C25.8844 2.19841 25.8185 1.75814 25.5062 1.52731C24.1444 0.520627 22.4754 -0.0209637 20.8054 0.000621157C18.7602 -0.0243386 16.7472 0.787802 15.2796 2.23293C13.752 3.73727 12.9429 5.75394 12.94 8.06486C12.9363 10.8097 14.0813 12.3675 15.0915 13.7419C15.748 14.635 16.3723 15.4865 16.6802 16.6301ZM23.2812 21.885C23.2812 22.3919 22.8689 22.8042 22.3621 22.8042H19.2472C18.7414 22.8042 18.3301 22.3919 18.3301 21.885V20.9659H23.2812V21.885ZM17.6767 17.807H23.9345C24.4182 17.807 24.8118 18.2006 24.8118 18.6843C24.8118 19.167 24.4183 19.5596 23.9345 19.5596H17.6767C17.193 19.5596 16.7994 19.167 16.7994 18.6843C16.7994 18.2006 17.193 17.807 17.6767 17.807Z" fill="white"/>
<path d="M21.5082 5.13614C21.5082 4.74782 21.1935 4.43304 20.8051 4.43304C20.4168 4.43304 20.1021 4.74782 20.1021 5.13614V9.49677C20.1021 9.88509 20.4168 10.1999 20.8051 10.1999C21.1935 10.1999 21.5082 9.88509 21.5082 9.49677V5.13614Z" fill="white"/>
<path d="M20.8052 11.9744C20.4168 11.9744 20.1021 12.2892 20.1021 12.6775V12.6815C20.1021 13.0698 20.4168 13.3827 20.8052 13.3827C21.1935 13.3827 21.5083 13.0659 21.5083 12.6776C21.5083 12.2892 21.1935 11.9744 20.8052 11.9744Z" fill="white"/>
<path d="M34.8675 8.06018H32.0117C31.6234 8.06018 31.3086 8.37495 31.3086 8.76327C31.3086 9.15159 31.6234 9.46636 32.0117 9.46636H34.8675C35.2558 9.46636 35.5706 9.15159 35.5706 8.76327C35.5706 8.37495 35.2558 8.06018 34.8675 8.06018Z" fill="white"/>
<path d="M30.8303 3.53137C30.965 3.53137 31.1012 3.4927 31.2215 3.41198L33.591 1.82159C33.9135 1.60518 33.9994 1.16842 33.783 0.845985C33.5666 0.523617 33.1299 0.43763 32.8074 0.654041L30.4378 2.24443C30.1154 2.46084 30.0294 2.89767 30.2459 3.22004C30.3816 3.42218 30.6039 3.53137 30.8303 3.53137Z" fill="white"/>
<path d="M33.591 15.705L31.2214 14.1146C30.899 13.8982 30.4622 13.9842 30.2458 14.3066C30.0294 14.6289 30.1154 15.0658 30.4378 15.2822L32.8073 16.8726C32.9276 16.9533 33.0638 16.9919 33.1985 16.9919C33.4249 16.9919 33.6472 16.8827 33.7829 16.6806C33.9994 16.3582 33.9134 15.9213 33.591 15.705Z" fill="white"/>
<path d="M6.74362 9.46636H9.59746C9.98578 9.46636 10.3006 9.15159 10.3006 8.76327C10.3006 8.37495 9.98578 8.06018 9.59746 8.06018H6.74362C6.3553 8.06018 6.04053 8.37495 6.04053 8.76327C6.04053 9.15159 6.3553 9.46636 6.74362 9.46636Z" fill="white"/>
<path d="M8.01983 1.82178L10.3894 3.41217C10.5096 3.49288 10.6458 3.53155 10.7805 3.53155C11.007 3.53155 11.2293 3.42236 11.365 3.22022C11.5814 2.89786 11.4954 2.46103 11.1731 2.24462L8.8035 0.654224C8.48106 0.437813 8.0443 0.523801 7.82789 0.846168C7.61148 1.16853 7.69739 1.60537 8.01983 1.82178Z" fill="white"/>
<path d="M10.3894 14.1146L8.01983 15.705C7.69739 15.9214 7.61148 16.3582 7.82789 16.6806C7.96358 16.8827 8.18583 16.9919 8.41237 16.9919C8.54708 16.9919 8.68327 16.9533 8.8035 16.8726L11.1731 15.2822C11.4955 15.0658 11.5814 14.6289 11.365 14.3066C11.1486 13.9842 10.7118 13.8982 10.3894 14.1146Z" fill="white"/>
<path d="M26.5717 4.86804C26.7088 5.00508 26.8881 5.07349 27.0674 5.07349C27.2474 5.07349 27.4276 5.00458 27.5651 4.86705C27.8397 4.59248 27.8387 4.14628 27.5641 3.87164C27.2896 3.59707 26.8443 3.59707 26.5697 3.87164C26.2951 4.14621 26.2951 4.59143 26.5697 4.86607L26.5717 4.86804Z" fill="white"/>
</g>
<defs>
<clipPath id="clip0">
<rect width="36" height="36" fill="white" transform="translate(0.0332031)"/>
</clipPath>
</defs>
</svg>
