<svg width="104" height="17" viewBox="0 0 104 17" fill="none" xmlns="http://www.w3.org/2000/svg">
<path opacity="0.9" d="M6.292 7.894C6.754 6.277 7.216 4.513 7.615 2.812H7.72C8.161 4.492 8.581 6.277 9.064 7.894L9.526 9.595H5.83L6.292 7.894ZM0.916 16H4.066L5.158 12.01H10.198L11.29 16H14.545L9.547 0.438999H5.893L0.916 16ZM16.3641 16H19.3041V9.763C19.3041 7.978 19.0731 6.025 18.9261 4.345H19.0311L20.6061 7.684L25.1001 16H28.2501V0.438999H25.3101V6.655C25.3101 8.419 25.5621 10.477 25.7091 12.094H25.6041L24.0501 8.734L19.5351 0.438999H16.3641V16ZM32.0936 16H35.2016V0.438999H32.0936V16ZM39.0253 16H42.1333V11.632L44.1703 9.007L48.2023 16H51.6043L46.0183 6.571L50.7643 0.438999H47.3413L42.1963 7.201H42.1333V0.438999H39.0253V16ZM58.1796 16H60.9726V9.511C60.9726 8.041 60.7206 5.878 60.5736 4.408H60.6576L61.8966 8.062L64.3116 14.593H66.0966L68.4906 8.062L69.7506 4.408H69.8556C69.6876 5.878 69.4566 8.041 69.4566 9.511V16H72.2916V0.438999H68.8476L66.2646 7.726C65.9286 8.692 65.6556 9.721 65.3196 10.708H65.2146C64.8996 9.721 64.6056 8.692 64.2696 7.726L61.6236 0.438999H58.1796V16ZM82.2774 16.294C86.3934 16.294 89.2284 13.207 89.2284 8.167C89.2284 3.127 86.3934 0.166 82.2774 0.166C78.1614 0.166 75.3264 3.106 75.3264 8.167C75.3264 13.207 78.1614 16.294 82.2774 16.294ZM82.2774 13.606C79.9674 13.606 78.4974 11.485 78.4974 8.167C78.4974 4.828 79.9674 2.833 82.2774 2.833C84.5874 2.833 86.0574 4.828 86.0574 8.167C86.0574 11.485 84.5874 13.606 82.2774 13.606ZM92.2635 16H97.8075C101.231 16 103.835 14.551 103.835 11.422C103.835 9.322 102.596 8.146 100.916 7.747V7.642C102.239 7.18 103.037 5.71 103.037 4.282C103.037 1.384 100.601 0.438999 97.4085 0.438999H92.2635V16ZM95.3715 6.781V2.833H97.2195C99.0885 2.833 100.013 3.379 100.013 4.744C100.013 5.983 99.1515 6.781 97.1775 6.781H95.3715ZM95.3715 13.606V9.07H97.5345C99.6765 9.07 100.811 9.721 100.811 11.233C100.811 12.85 99.6555 13.606 97.5345 13.606H95.3715Z" fill="white"/>
</svg>
