<svg width="101" height="100" viewBox="0 0 101 100" fill="none" xmlns="http://www.w3.org/2000/svg">
<path d="M69.4375 1.5625H31.5625C29.4705 1.56483 27.4649 2.38867 25.9856 3.8533C24.5063 5.31792 23.6742 7.30371 23.6719 9.375V90.625C23.6742 92.6963 24.5063 94.6821 25.9856 96.1467C27.4649 97.6113 29.4705 98.4352 31.5625 98.4375H69.4375C71.5295 98.4352 73.5351 97.6113 75.0144 96.1467C76.4937 94.6821 77.3258 92.6963 77.3281 90.625V9.375C77.3258 7.30371 76.4937 5.31792 75.0144 3.8533C73.5351 2.38867 71.5295 1.56483 69.4375 1.5625ZM61.2001 4.6875L60.2532 9.375H40.747L39.8001 4.6875H61.2001ZM74.1719 90.625C74.1705 91.8678 73.6712 93.0592 72.7837 93.938C71.8961 94.8168 70.6927 95.3111 69.4375 95.3125H31.5625C30.3073 95.3111 29.1039 94.8168 28.2163 93.938C27.3288 93.0592 26.8295 91.8678 26.8281 90.625V9.375C26.8295 8.13223 27.3288 6.94075 28.2163 6.06198C29.1039 5.1832 30.3073 4.6889 31.5625 4.6875H36.5811L37.9056 11.2439C37.9771 11.5982 38.1704 11.9169 38.4526 12.1459C38.7347 12.3749 39.0883 12.5 39.4531 12.5H61.5469C61.9117 12.5 62.2653 12.3749 62.5474 12.1459C62.8296 11.9169 63.0229 11.5982 63.0944 11.2439L64.4189 4.6875H69.4375C70.6927 4.6889 71.8961 5.1832 72.7837 6.06198C73.6712 6.94075 74.1705 8.13223 74.1719 9.375V90.625Z" fill="#5484FF"/>
<path d="M41.0312 89.0625H31.5625C31.144 89.0625 30.7426 89.2271 30.4466 89.5201C30.1506 89.8132 29.9844 90.2106 29.9844 90.625C29.9844 91.0394 30.1506 91.4368 30.4466 91.7299C30.7426 92.0229 31.144 92.1875 31.5625 92.1875H41.0312C41.4498 92.1875 41.8512 92.0229 42.1472 91.7299C42.4431 91.4368 42.6094 91.0394 42.6094 90.625C42.6094 90.2106 42.4431 89.8132 42.1472 89.5201C41.8512 89.2271 41.4498 89.0625 41.0312 89.0625Z" fill="#5484FF"/>
<path d="M47.3438 89.0625H45.7656C45.3471 89.0625 44.9457 89.2271 44.6497 89.5201C44.3538 89.8132 44.1875 90.2106 44.1875 90.625C44.1875 91.0394 44.3538 91.4368 44.6497 91.7299C44.9457 92.0229 45.3471 92.1875 45.7656 92.1875H47.3438C47.7623 92.1875 48.1637 92.0229 48.4597 91.7299C48.7556 91.4368 48.9219 91.0394 48.9219 90.625C48.9219 90.2106 48.7556 89.8132 48.4597 89.5201C48.1637 89.2271 47.7623 89.0625 47.3438 89.0625Z" fill="#5484FF"/>
<line x1="36.2991" y1="42.2992" x2="43.5558" y2="33.7314" stroke="#5484FF" stroke-width="1.5" stroke-linecap="round"/>
<line x1="39.2492" y1="44.2627" x2="44.5937" y2="37.7829" stroke="#5484FF" stroke-width="1.5" stroke-linecap="round"/>
</svg>
