<svg width="100" height="100" viewBox="0 0 100 100" fill="none" xmlns="http://www.w3.org/2000/svg">
<path d="M85 60.1333V18.3333C85 8.20812 76.7919 0 66.6667 0C56.5415 0 48.3333 8.20812 48.3333 18.3333V81.6667C48.3333 89.9508 41.6177 96.6667 33.3333 96.6667C25.0492 96.6667 18.3333 89.9508 18.3333 81.6667V39.8667C24.066 39.035 28.3223 34.126 28.3333 28.3333V10C28.3333 9.07958 27.5871 8.33333 26.6667 8.33333H25V1.66667C25 0.74625 24.2537 0 23.3333 0H10C9.07958 0 8.33333 0.74625 8.33333 1.66667V8.33333H6.66667C5.74625 8.33333 5 9.07958 5 10V28.3333C5.01104 34.126 9.26729 39.0348 15 39.8667V81.6667C15 91.7919 23.2081 100 33.3333 100C43.4585 100 51.6667 91.7919 51.6667 81.6667V18.3333C51.6667 10.049 58.3825 3.33333 66.6667 3.33333C74.951 3.33333 81.6667 10.049 81.6667 18.3333V60.1333C75.934 60.965 71.6777 65.874 71.6667 71.6667V90C71.6667 90.9204 72.4129 91.6667 73.3333 91.6667H75V98.3333C75 99.2537 75.7462 100 76.6667 100H90C90.9204 100 91.6667 99.2537 91.6667 98.3333V91.6667H93.3333C94.2537 91.6667 95 90.9204 95 90V71.6667C94.989 65.874 90.7327 60.9652 85 60.1333ZM11.6667 3.33333H21.6667V8.33333H11.6667V3.33333ZM8.33333 28.3333V11.6667H25V28.3333C25 32.9356 21.269 36.6667 16.6667 36.6667C12.0644 36.6667 8.33333 32.9356 8.33333 28.3333ZM88.3333 96.6667H78.3333V91.6667H88.3333V96.6667ZM91.6667 88.3333H75V71.6667C75 67.0644 78.731 63.3333 83.3333 63.3333C87.9356 63.3333 91.6667 67.0644 91.6667 71.6667V88.3333Z" fill="#5484FF"/>
</svg>
