<svg width="61" height="111" viewBox="0 0 61 111" fill="none" xmlns="http://www.w3.org/2000/svg">
<path d="M52.8983 110.162H7.45797C5.48076 110.16 3.58525 109.373 2.18715 107.975C0.789049 106.577 0.00249858 104.681 0 102.704V17.1695C0.00208218 15.1921 0.788449 13.2961 2.18659 11.8977C3.58474 10.4993 5.48049 9.71249 7.45797 9.70999H52.8983C54.8755 9.71249 56.771 10.499 58.1691 11.8971C59.5672 13.2952 60.3537 15.1908 60.3562 17.168V102.704C60.3537 104.681 59.5672 106.577 58.1691 107.975C56.771 109.373 54.8755 110.16 52.8983 110.162ZM7.45797 12.8575C6.31527 12.8591 5.21985 13.3138 4.41184 14.1218C3.60383 14.9298 3.14915 16.0253 3.14749 17.168V102.704C3.14915 103.847 3.60383 104.942 4.41184 105.75C5.21985 106.558 6.31527 107.013 7.45797 107.015H52.8983C54.041 107.013 55.1364 106.558 55.9444 105.75C56.7524 104.942 57.2071 103.847 57.2087 102.704V17.1695C57.2071 16.0268 56.7524 14.9314 55.9444 14.1234C55.1364 13.3154 54.041 12.8607 52.8983 12.8591L7.45797 12.8575Z" fill="#5484FF"/>
<path d="M43.1095 12.8575H17.2466C16.8292 12.8575 16.4289 12.6917 16.1338 12.3966C15.8387 12.1014 15.6729 11.7011 15.6729 11.2837V4.51665C15.6741 3.31941 16.1501 2.17155 16.9966 1.32483C17.843 0.478111 18.9907 0.00166622 20.1879 0H40.1745C41.372 0.00124979 42.5201 0.477511 43.3668 1.32428C44.2136 2.17104 44.6899 3.31914 44.6911 4.51665V11.2837C44.6911 11.4911 44.6502 11.6964 44.5706 11.8878C44.491 12.0793 44.3744 12.2531 44.2274 12.3993C44.0804 12.5456 43.906 12.6613 43.7142 12.74C43.5223 12.8186 43.3168 12.8585 43.1095 12.8575ZM18.8188 9.71H41.5358V4.51665C41.5353 4.15365 41.391 3.80564 41.1343 3.54897C40.8776 3.29229 40.5296 3.1479 40.1666 3.14749H20.1801C19.8171 3.1479 19.4691 3.29229 19.2124 3.54897C18.9557 3.80564 18.8113 4.15365 18.8109 4.51665L18.8188 9.71Z" fill="#5484FF"/>
<path d="M20.9073 86.5795C20.6468 86.5794 20.3904 86.5145 20.1612 86.3908C19.9319 86.2672 19.7369 86.0885 19.5937 85.8709C19.4505 85.6533 19.3636 85.4036 19.3407 85.1441C19.3178 84.8846 19.3597 84.6235 19.4626 84.3842L27.6036 65.4205H15.0341C14.7331 65.4205 14.4384 65.3342 14.185 65.1717C13.9316 65.0093 13.73 64.7776 13.6043 64.5041C13.4786 64.2307 13.4339 63.9269 13.4756 63.6288C13.5173 63.3307 13.6436 63.0508 13.8396 62.8223L38.7063 33.8355C38.9492 33.54 39.2914 33.343 39.6689 33.2814C40.0464 33.2198 40.4335 33.2979 40.7577 33.501C41.0818 33.704 41.3209 34.0182 41.4303 34.3848C41.5396 34.7513 41.5117 35.1452 41.3518 35.4926L32.575 55.7294H45.3224C45.6251 55.7295 45.9214 55.817 46.1757 55.9812C46.43 56.1455 46.6315 56.3796 46.7561 56.6555C46.8806 56.9314 46.923 57.2374 46.8781 57.5368C46.8331 57.8362 46.7028 58.1163 46.5027 58.3434L22.0876 86.0413C21.9404 86.2098 21.759 86.3449 21.5555 86.4377C21.3519 86.5305 21.131 86.5789 20.9073 86.5795ZM18.4585 62.2731H29.9925C30.2531 62.273 30.5097 62.3376 30.7392 62.4612C30.9686 62.5848 31.1638 62.7634 31.3072 62.981C31.4506 63.1987 31.5377 63.4485 31.5606 63.7081C31.5836 63.9677 31.5417 64.229 31.4388 64.4684L26.2454 76.5752L41.8428 58.8769H30.1782C29.9168 58.877 29.6596 58.8121 29.4296 58.6879C29.1996 58.5636 29.0042 58.3841 28.861 58.1655C28.7178 57.9468 28.6313 57.6959 28.6093 57.4355C28.5873 57.175 28.6305 56.9132 28.7351 56.6737L34.3203 43.7847L18.4585 62.2731Z" fill="#5484FF"/>
</svg>
