<svg width="101" height="100" viewBox="0 0 101 100" fill="none" xmlns="http://www.w3.org/2000/svg">
<path d="M45.7656 2H7.89062C5.79862 2.00233 3.79298 2.82617 2.31371 4.2908C0.834435 5.75542 0.00234954 7.74121 0 9.8125V91.0625C0.00234954 93.1338 0.834435 95.1196 2.31371 96.5842C3.79298 98.0488 5.79862 98.8727 7.89062 98.875H45.7656C47.8576 98.8727 49.8633 98.0488 51.3425 96.5842C52.8218 95.1196 53.6539 93.1338 53.6562 91.0625V9.8125C53.6539 7.74121 52.8218 5.75542 51.3425 4.2908C49.8633 2.82617 47.8576 2.00233 45.7656 2V2ZM37.5282 5.125L36.5813 9.8125H17.0751L16.1282 5.125H37.5282ZM50.5 91.0625C50.4986 92.3053 49.9993 93.4967 49.1118 94.3755C48.2242 95.2543 47.0208 95.7486 45.7656 95.75H7.89062C6.63542 95.7486 5.43203 95.2543 4.54447 94.3755C3.65691 93.4967 3.15766 92.3053 3.15625 91.0625V9.8125C3.15766 8.56973 3.65691 7.37825 4.54447 6.49948C5.43203 5.6207 6.63542 5.1264 7.89062 5.125H12.9093L14.2337 11.6814C14.3053 12.0357 14.4985 12.3544 14.7807 12.5834C15.0628 12.8124 15.4164 12.9375 15.7812 12.9375H37.875C38.2398 12.9375 38.5934 12.8124 38.8756 12.5834C39.1577 12.3544 39.351 12.0357 39.4225 11.6814L40.747 5.125H45.7656C47.0208 5.1264 48.2242 5.6207 49.1118 6.49948C49.9993 7.37825 50.4986 8.56973 50.5 9.8125V91.0625Z" fill="#5484FF"/>
<path d="M38.0312 89.0625H28.5625C28.144 89.0625 27.7426 89.2271 27.4466 89.5201C27.1506 89.8132 26.9844 90.2106 26.9844 90.625C26.9844 91.0394 27.1506 91.4368 27.4466 91.7299C27.7426 92.0229 28.144 92.1875 28.5625 92.1875H38.0312C38.4498 92.1875 38.8512 92.0229 39.1472 91.7299C39.4431 91.4368 39.6094 91.0394 39.6094 90.625C39.6094 90.2106 39.4431 89.8132 39.1472 89.5201C38.8512 89.2271 38.4498 89.0625 38.0312 89.0625Z" fill="#5484FF"/>
<path d="M44.3438 89.0625H42.7656C42.3471 89.0625 41.9457 89.2271 41.6497 89.5201C41.3538 89.8132 41.1875 90.2106 41.1875 90.625C41.1875 91.0394 41.3538 91.4368 41.6497 91.7299C41.9457 92.0229 42.3471 92.1875 42.7656 92.1875H44.3438C44.7623 92.1875 45.1637 92.0229 45.4597 91.7299C45.7556 91.4368 45.9219 91.0394 45.9219 90.625C45.9219 90.2106 45.7556 89.8132 45.4597 89.5201C45.1637 89.2271 44.7623 89.0625 44.3438 89.0625Z" fill="#5484FF"/>
<line x1="36.2991" y1="42.2992" x2="43.5558" y2="33.7314" stroke="#5484FF" stroke-width="1.5" stroke-linecap="round"/>
<line x1="39.2492" y1="44.2627" x2="44.5937" y2="37.7829" stroke="#5484FF" stroke-width="1.5" stroke-linecap="round"/>
</svg>
