<svg width="86" height="100" viewBox="0 0 86 100" fill="none" xmlns="http://www.w3.org/2000/svg">
<path d="M27.186 21.0945L22.2138 31.2891C21.9157 31.9004 21.9569 32.6227 22.3227 33.1961C22.6886 33.7695 23.3245 34.1103 24.0063 34.098L29.4057 33.9951L25.8333 41.3199C25.3604 42.2894 25.763 43.4586 26.7325 43.9316C27.0083 44.066 27.2999 44.1297 27.5872 44.1297C28.3104 44.1297 29.0057 43.7262 29.344 43.0324L34.3163 32.8379C34.6143 32.2266 34.5731 31.5043 34.2073 30.9309C33.8415 30.3576 33.2024 30.0213 32.5237 30.0289L27.1241 30.1318L30.6968 22.807C31.1696 21.8375 30.7671 20.6684 29.7975 20.1953C28.8284 19.7225 27.6589 20.1248 27.186 21.0945Z" fill="#5484FF"/>
<path d="M8.38672 32.0635C8.38672 43.0244 17.3041 51.9416 28.265 51.9416C39.226 51.9416 48.1434 43.0244 48.1434 32.0635C48.1434 21.1025 39.226 12.1852 28.265 12.1852C17.3041 12.1852 8.38672 21.1025 8.38672 32.0635ZM44.2373 32.0635C44.2373 40.8705 37.0723 48.0353 28.2652 48.0353C19.4582 48.0353 12.2932 40.8703 12.2932 32.0635C12.2932 23.2566 19.4582 16.0914 28.2652 16.0914C37.0723 16.0914 44.2373 23.2564 44.2373 32.0635Z" fill="#5484FF"/>
<path d="M18.4995 69.9861H14.5933C13.5146 69.9861 12.6401 70.8608 12.6401 71.9393C12.6401 73.0178 13.5146 73.8924 14.5933 73.8924H18.4995C19.5782 73.8924 20.4526 73.0178 20.4526 71.9393C20.4526 70.8608 19.578 69.9861 18.4995 69.9861Z" fill="#5484FF"/>
<path d="M32.1714 71.9393C32.1714 70.8608 31.297 69.9861 30.2183 69.9861H26.312C25.2333 69.9861 24.3589 70.8608 24.3589 71.9393C24.3589 73.0178 25.2333 73.8924 26.312 73.8924H30.2183C31.2968 73.8924 32.1714 73.018 32.1714 71.9393Z" fill="#5484FF"/>
<path d="M38.0308 73.8924H41.937C43.0157 73.8924 43.8901 73.0178 43.8901 71.9393C43.8901 70.8608 43.0157 69.9861 41.937 69.9861H38.0308C36.952 69.9861 36.0776 70.8608 36.0776 71.9393C36.0776 73.0178 36.952 73.8924 38.0308 73.8924Z" fill="#5484FF"/>
<path d="M85.4254 44.6227C85.4254 43.5439 84.5508 42.6695 83.4723 42.6695H81.5191V34.857C81.5191 33.7783 80.6445 32.9039 79.566 32.9039H71.7535C70.675 32.9039 69.8004 33.7783 69.8004 34.857V42.6695H67.8473C66.7687 42.6695 65.8941 43.5439 65.8941 44.6227C65.8941 49.3387 69.2545 53.2844 73.7066 54.1918V90.2344C73.7066 93.4652 71.0781 96.0938 67.8473 96.0938H36.0777C32.8469 96.0938 30.2184 93.4652 30.2184 90.2344V83.658H50.0967C53.3275 83.658 55.9561 81.0295 55.9561 77.7986V28.1412C55.9561 27.0627 55.0814 26.1881 54.0029 26.1881C52.9244 26.1881 52.0498 27.0627 52.0498 28.1412V60.2205H4.48047V5.85938C4.48047 4.78242 5.35664 3.90625 6.43359 3.90625H50.0967C51.1736 3.90625 52.0498 4.78242 52.0498 5.85938V12.5162C52.0498 13.5947 52.9244 14.4693 54.0029 14.4693C55.0814 14.4693 55.9561 13.5947 55.9561 12.5162V5.85938C55.9561 2.62852 53.3275 0 50.0967 0H6.43359C3.20273 0 0.574219 2.62852 0.574219 5.85938V77.7986C0.574219 81.0295 3.20273 83.658 6.43359 83.658H26.3119V90.2344C26.3119 95.6191 30.6928 100 36.0775 100H67.8471C73.2318 100 77.6127 95.6191 77.6127 90.2344V54.1918C82.0648 53.2844 85.4254 49.3387 85.4254 44.6227ZM4.48047 77.7986V64.1268H52.0498V77.7986C52.0498 78.8756 51.1736 79.7518 50.0967 79.7518H6.43359C5.35664 79.7518 4.48047 78.8756 4.48047 77.7986ZM73.7066 36.8102H77.6129V42.6695H73.7066V36.8102ZM75.6598 50.482C73.1135 50.482 70.9412 48.8494 70.1352 46.5758H71.7535H79.566H81.1844C80.3783 48.8492 78.206 50.482 75.6598 50.482Z" fill="#5484FF"/>
<path d="M54.0029 22.2818C55.0816 22.2818 55.9561 21.4074 55.9561 20.3287C55.9561 19.25 55.0816 18.3756 54.0029 18.3756C52.9242 18.3756 52.0498 19.25 52.0498 20.3287C52.0498 21.4074 52.9242 22.2818 54.0029 22.2818Z" fill="#5484FF"/>
</svg>
