<svg width="127" height="31" viewBox="0 0 127 31" fill="none" xmlns="http://www.w3.org/2000/svg">
<path d="M36.0664 9.55542H39.2832V23.1227H36.0664V9.55542ZM40.5659 18.0193C40.5659 14.6588 42.5702 12.6446 45.5766 12.6446C48.5829 12.6446 50.5872 14.6588 50.5872 18.0193C50.5872 21.3798 48.6531 23.4149 45.5766 23.4149C42.5 23.4149 40.5659 21.4529 40.5659 18.0193ZM47.4004 18.0193C47.4004 16.1721 46.709 15.0867 45.6066 15.0867C44.5043 15.0867 43.8228 16.1303 43.8228 18.0193C43.8228 19.9083 44.5043 20.9415 45.6066 20.9415C46.709 20.9415 47.4205 19.9083 47.4205 18.0297L47.4004 18.0193ZM51.8699 23.8219H54.9765C55.1179 24.1702 55.3649 24.4608 55.6797 24.6492C55.9946 24.8377 56.36 24.9136 56.7202 24.8656C57.9528 24.8656 58.5941 24.1768 58.5941 23.154V21.2755H58.6042C58.3387 21.8604 57.9094 22.3479 57.3728 22.6739C56.8362 22.9999 56.2174 23.1491 55.5978 23.1018C53.2428 23.1018 51.6795 21.2337 51.6795 18.0193C51.6795 14.8049 53.1727 12.8011 55.688 12.8011C56.3234 12.7657 56.9538 12.9364 57.4922 13.2897C58.0307 13.6429 58.4507 14.1614 58.6944 14.7736H58.6042V12.8846H61.7909V23.0496C61.7909 25.5022 59.7065 27.0363 56.64 27.0363C53.8541 27.0259 52.0703 25.7005 51.8899 23.8324L51.8699 23.8219ZM58.6042 18.0193C58.6042 16.3808 57.8826 15.3476 56.7402 15.3476C55.5978 15.3476 54.8963 16.3912 54.8963 18.0193C54.8963 19.6474 55.5878 20.6075 56.7402 20.6075C57.8927 20.6075 58.6042 19.7204 58.6042 18.0193ZM63.0636 18.0193C63.0636 14.6588 65.0679 12.6446 68.0742 12.6446C71.0806 12.6446 73.0849 14.6588 73.0849 18.0193C73.0849 21.3798 71.1407 23.4149 68.0742 23.4149C65.0077 23.4149 63.0837 21.4529 63.0837 18.0193H63.0636ZM69.8981 18.0193C69.8981 16.1721 69.1966 15.0867 68.1043 15.0867C67.012 15.0867 66.3205 16.1303 66.3205 18.0193C66.3205 19.9083 67.002 20.9415 68.1043 20.9415C69.2066 20.9415 69.9181 19.9083 69.9181 18.0297L69.8981 18.0193ZM74.3876 10.4112C74.3736 10.07 74.458 9.73215 74.6298 9.44124C74.8017 9.15033 75.0532 8.91963 75.352 8.77881C75.6508 8.638 75.9833 8.59351 76.3066 8.65107C76.6298 8.70862 76.9292 8.8656 77.1661 9.1018C77.403 9.33799 77.5667 9.64261 77.636 9.97646C77.7053 10.3103 77.6771 10.6581 77.555 10.9751C77.433 11.2922 77.2226 11.5639 76.951 11.7554C76.6795 11.9469 76.3591 12.0494 76.0311 12.0497C75.8215 12.0553 75.6129 12.0174 75.4175 11.9383C75.222 11.8592 75.0436 11.7405 74.8926 11.5891C74.7416 11.4376 74.6209 11.2564 74.5377 11.056C74.4544 10.8556 74.4102 10.64 74.4077 10.4216L74.3876 10.4112ZM74.3876 12.8742H77.6445V23.1644H74.4377L74.3876 12.8742ZM89.3593 18.0193C89.3593 21.3694 87.9163 23.3105 85.4611 23.3105C84.8325 23.3509 84.2072 23.1894 83.6696 22.8479C83.1319 22.5063 82.7079 22.0012 82.4547 21.4007H82.3946V26.4728H79.1778V12.9055H82.3745V14.7423H82.4347C82.6792 14.13 83.099 13.611 83.637 13.2562C84.175 12.9013 84.805 12.7279 85.441 12.7594C87.9664 12.7385 89.4195 14.6692 89.4195 18.0297L89.3593 18.0193ZM86.0824 18.0193C86.0824 16.3912 85.3508 15.3372 84.2184 15.3372C83.086 15.3372 82.3745 16.3808 82.3645 18.0193C82.3545 19.6578 83.086 20.691 84.2184 20.691C85.3508 20.691 86.1425 19.7204 86.1425 18.0297L86.0824 18.0193ZM94.851 12.6341C97.5467 12.6341 99.2202 13.9596 99.2403 16.0886H96.3041C96.3041 15.3476 95.7128 14.8884 94.8309 14.8884C93.9491 14.8884 93.5282 15.2432 93.5282 15.7755C93.5282 16.3077 93.899 16.4747 94.6405 16.6313L96.7049 17.0696C98.7092 17.5079 99.5109 18.3428 99.5109 19.8979C99.5109 21.9851 97.6569 23.4045 94.9011 23.4045C92.1452 23.4045 90.3514 22.0269 90.2212 19.9292H93.3378C93.428 20.691 94.0092 21.1398 94.9512 21.1398C95.8932 21.1398 96.3341 20.8267 96.3341 20.2736C96.3341 19.7204 96.0335 19.6265 95.2619 19.4595L93.3979 19.0525C91.4638 18.6246 90.4517 17.5705 90.4517 15.9947C90.5118 13.9491 92.1954 12.6446 94.9111 12.6446L94.851 12.6341ZM110.284 23.154H107.167V21.2233H107.107C106.932 21.8673 106.553 22.4301 106.03 22.819C105.507 23.208 104.872 23.3997 104.231 23.3627C103.746 23.3791 103.264 23.2887 102.816 23.0974C102.367 22.906 101.963 22.6181 101.629 22.2525C101.295 21.8868 101.039 21.4518 100.878 20.9758C100.716 20.4999 100.654 19.9938 100.693 19.4908V12.8846H103.91V18.7707C103.91 19.9813 104.521 20.6388 105.524 20.6388C105.759 20.637 105.991 20.5826 106.204 20.4794C106.417 20.3762 106.607 20.2266 106.76 20.0406C106.912 19.8546 107.025 19.6367 107.09 19.4014C107.156 19.1661 107.171 18.919 107.137 18.6768V12.8846H110.344L110.284 23.154ZM111.837 12.8742H114.964V14.8571H115.034C115.207 14.2219 115.577 13.6642 116.086 13.2714C116.596 12.8787 117.216 12.6729 117.85 12.6863C118.486 12.6287 119.12 12.8203 119.628 13.2237C120.136 13.6271 120.481 14.2132 120.596 14.8675H120.736C120.936 14.2098 121.339 13.6393 121.883 13.2449C122.427 12.8504 123.08 12.6541 123.742 12.6863C124.182 12.6689 124.621 12.7484 125.029 12.9196C125.437 13.0909 125.806 13.35 126.112 13.68C126.417 14.0101 126.653 14.4036 126.802 14.8348C126.952 15.2661 127.012 15.7253 126.979 16.1825V23.1644H123.742V17.0383C123.742 15.9947 123.271 15.4102 122.359 15.4102C122.157 15.4068 121.956 15.4489 121.771 15.5337C121.586 15.6186 121.421 15.7441 121.287 15.9017C121.152 16.0593 121.052 16.2453 120.994 16.4469C120.935 16.6485 120.919 16.8609 120.946 17.0696V23.1644H117.88V17.007C117.88 15.9633 117.389 15.4102 116.507 15.4102C116.302 15.4085 116.1 15.4524 115.913 15.5388C115.727 15.6253 115.56 15.7524 115.424 15.9115C115.288 16.0706 115.187 16.2582 115.126 16.4615C115.066 16.6649 115.048 16.8793 115.074 17.0905V23.1644H111.857L111.837 12.8742Z" fill="#394149"/>
<path d="M29.703 10.4425C29.7031 8.36535 29.1008 6.33658 27.9749 4.62194C26.8491 2.90731 25.2523 1.58675 23.3937 0.833233C21.535 0.0797202 19.5011 -0.0716095 17.5585 0.399063C15.6158 0.869736 13.8549 1.94046 12.5065 3.471H0V30.9604H26.406V18.1132C27.4424 17.1478 28.2717 15.9657 28.8398 14.644C29.4079 13.3222 29.702 11.8906 29.703 10.4425ZM24.6222 10.4425C24.6242 11.4379 24.3426 12.4114 23.813 13.2401C23.2835 14.0687 22.5298 14.715 21.6474 15.0974C20.7649 15.4797 19.7934 15.5808 18.8558 15.3879C17.9181 15.195 17.0565 14.7167 16.38 14.0136C15.7035 13.3105 15.2425 12.4142 15.0553 11.4382C14.8681 10.4621 14.9631 9.45012 15.3284 8.53034C15.6937 7.61055 16.3128 6.8243 17.1074 6.2711C17.9019 5.7179 18.8362 5.42261 19.7919 5.42261C21.0713 5.4226 22.2983 5.95115 23.2039 6.89227C24.1095 7.83338 24.6195 9.11019 24.6222 10.4425ZM21.3252 25.6692H5.08077V8.76225H10.0313C9.93563 9.31691 9.88535 9.87901 9.88094 10.4425C9.8836 13.1791 10.9286 15.8028 12.7867 17.7379C14.6448 19.673 17.1642 20.7613 19.7919 20.7641C20.3057 20.7613 20.8184 20.7159 21.3252 20.6284V25.6692Z" fill="#394149"/>
</svg>
