<svg width="150" height="16" viewBox="0 0 150 16" fill="none" xmlns="http://www.w3.org/2000/svg">
<path d="M74.5883 14.975H69.4575V0.689631H74.5883V14.975ZM69.9585 14.4532H74.0873V1.21145H69.9585V14.4532ZM81.7275 14.975H76.6998V0.689631H87.2041C88.7089 0.562721 90.2075 1.00269 91.427 1.92948C91.952 2.42971 92.359 3.04951 92.6161 3.74051C92.8732 4.43151 92.9735 5.17504 92.9092 5.91307C92.9841 7.18837 92.5944 8.44619 91.8179 9.43537C90.8989 10.5333 89.3697 11.0989 87.2732 11.1188C86.7451 11.1334 82.7877 11.1188 81.7305 11.1188L81.7275 14.975ZM77.1979 14.4532H81.2264V10.5917H81.478C81.5291 10.5917 86.6669 10.6084 87.2612 10.5917C89.2143 10.574 90.6183 10.0699 91.4391 9.08575C92.1303 8.19078 92.4736 7.05811 92.4011 5.91202C92.4627 5.25074 92.3773 4.58356 92.1513 3.96223C91.9254 3.3409 91.5651 2.78211 91.0983 2.3292C89.9675 1.48395 88.584 1.08718 87.1971 1.21041H77.2009L77.1979 14.4532ZM86.1398 7.90956H81.1923V4.02094H86.1729C86.5259 3.97013 86.8856 4.01305 87.2185 4.14569C87.5513 4.27833 87.8466 4.49641 88.0769 4.77967C88.2859 5.14175 88.3844 5.56135 88.3595 5.98299C88.3783 6.37447 88.2971 6.76413 88.124 7.11222C87.8864 7.41058 87.5791 7.64025 87.2316 7.77916C86.8841 7.91807 86.5081 7.96154 86.1398 7.90538V7.90956ZM81.6934 7.38774H86.1398C86.9616 7.38774 87.4706 7.20928 87.6961 6.84191C87.8203 6.5749 87.8765 6.27914 87.8595 5.98299C87.8814 5.67205 87.8167 5.36113 87.6731 5.08755L87.6671 5.07815C87.4286 4.71288 86.9546 4.54276 86.1729 4.54276H81.6934V7.38774ZM102.054 15.1858C97.554 15.1858 94.8683 14.0222 93.8452 11.6291C93.6777 11.1669 93.564 10.6855 93.5064 10.1951L93.4623 9.89457H98.8157L98.8508 10.1137C98.892 10.3363 98.9826 10.5457 99.1153 10.7253C99.3268 10.9914 100.032 11.4381 102.373 11.4381C105.187 11.4381 105.187 10.9236 105.187 10.647C105.187 10.1805 104.862 10.0209 102.567 9.7662L102.131 9.72341C101.267 9.63888 100.175 9.53139 99.6755 9.48651C95.4666 9.08992 93.5876 7.72796 93.5876 5.07189C93.5876 2.28223 96.7854 0.479858 101.735 0.479858C105.772 0.479858 108.374 1.58821 109.465 3.77673C109.724 4.2858 109.898 4.83706 109.979 5.4069L110.014 5.70017H104.655L104.633 5.4643C104.612 5.27998 104.536 5.10705 104.417 4.96961C104.216 4.68992 103.583 4.22758 101.617 4.22758C99.2025 4.22758 98.8698 4.54903 98.8698 4.89552C98.8698 5.35785 99.6324 5.5217 102.077 5.79409C103.096 5.88072 104.734 6.05605 105.295 6.12702C108.824 6.52569 110.398 7.85425 110.398 10.4362C110.399 12.6018 108.951 15.1858 102.054 15.1858ZM94.0476 10.4164C94.0978 10.7606 94.1842 11.0979 94.3051 11.4225C95.2371 13.6026 97.7725 14.664 102.054 14.664C105.633 14.664 109.901 13.9335 109.901 10.4362C109.901 8.14751 108.508 7.01412 105.242 6.64571C104.681 6.57474 103.053 6.40045 102.036 6.31279C99.43 6.01848 98.3708 5.86193 98.3708 4.89552C98.3708 3.8957 99.5122 3.70576 101.619 3.70576C103.283 3.70576 104.358 4.01885 104.814 4.65026C104.939 4.80582 105.033 4.98521 105.091 5.17834H109.434C109.347 4.77471 109.209 4.38485 109.023 4.01885C108.021 2.0161 105.573 1.00168 101.737 1.00168C97.092 1.00168 94.0907 2.5995 94.0907 5.07189C94.0907 7.43053 95.7752 8.59524 99.7216 8.96677C100.223 9.01165 101.314 9.11915 102.18 9.20472L102.619 9.24751C104.75 9.48129 105.69 9.6274 105.69 10.647C105.69 11.745 104.475 11.9599 102.375 11.9599C100.433 11.9599 99.2065 11.6562 98.7325 11.0582C98.5864 10.8675 98.4762 10.6498 98.4078 10.4164H94.0476ZM119.918 15.1681C114.687 15.1681 111.801 12.965 111.801 8.96364V0.689631H116.864V8.96364C116.864 10.336 118.043 11.1229 120.099 11.1229C122.063 11.1229 123.283 10.3016 123.283 8.98138V0.689631H128.293V9.40197C128.298 13.0662 125.243 15.1681 119.915 15.1681H119.918ZM112.302 1.21145V8.96364C112.302 13.9084 117.07 14.6463 119.918 14.6463C122.863 14.6463 127.8 13.9648 127.8 9.40197V1.21145H123.792V8.98138C123.792 10.599 122.345 11.6448 120.107 11.6448C117.768 11.6448 116.371 10.6429 116.371 8.96364V1.21145H112.302ZM149.526 14.975H144.748V8.52531L142.038 14.975H137.87L135.189 8.53784V14.975H130.394V0.689631H136.701L139.978 8.56601L143.413 0.689631H149.532L149.526 14.975ZM145.249 14.4532H149.025V1.21145H143.732L139.962 9.85178L136.368 1.21145H130.891V14.4532H134.684V6.02683L138.191 14.4563H141.699L145.243 6.03935L145.249 14.4532ZM4.80146 0.950542H0.237793V14.7141H12.8485V11.0499H4.80146V0.950542ZM22.06 0.63745C16.2347 0.63745 13.1712 3.51269 13.1712 7.73423C13.1712 12.5037 16.387 14.9229 22.06 14.9229C28.3053 14.9229 30.9318 12.1175 30.9318 7.73423C30.9318 3.28309 27.9686 0.63536 22.06 0.63536V0.63745ZM22.043 4.21402C22.4396 4.21207 22.8359 4.23613 23.2295 4.28603L18.1277 9.59922C17.8862 9.03052 17.7685 8.41326 17.783 7.79163C17.783 5.63233 18.8272 4.21193 22.043 4.21193V4.21402ZM22.06 11.4026C21.678 11.4044 21.2961 11.3821 20.9166 11.3358L26.0274 6.01326C26.2599 6.57254 26.3711 7.17832 26.3531 7.78745C26.3531 9.88831 25.3911 11.4006 22.06 11.4006V11.4026ZM39.974 9.52408H44.671C44.6018 9.86354 44.4577 10.1816 44.2501 10.4529C43.2763 11.2791 42.0335 11.6811 40.7817 11.5748C40.1516 11.645 39.5144 11.5734 38.9132 11.3647C38.312 11.156 37.761 10.8151 37.2973 10.3653C36.8225 9.63981 36.5968 8.7686 36.657 7.89286C36.5802 6.97523 36.8255 6.05972 37.3474 5.3161C38.0038 4.54381 39.1152 4.21089 40.7486 4.21089C41.788 4.12127 42.826 4.39924 43.6949 4.99988C43.9688 5.22643 44.1735 5.53101 44.2841 5.87654H48.6404C48.6087 5.3072 48.4772 4.7487 48.2525 4.22863C47.2093 2.01923 44.7842 0.704242 40.6605 0.704242C37.0739 0.704242 34.6668 1.8439 33.3369 3.56278C32.4587 4.80405 32.0078 6.31741 32.0572 7.85842C32.0004 9.43428 32.4396 10.9863 33.3079 12.2783C34.6217 14.0525 36.9616 14.9249 39.7736 14.9249C41.6431 15.0607 43.4998 14.5154 45.0257 13.3824L45.144 14.7141H48.7626V6.56117H39.974V9.52408ZM59.0334 0.634316C53.209 0.634316 50.1446 3.50956 50.1446 7.7311C50.1446 12.5006 53.3594 14.9197 59.0334 14.9197C65.2796 14.9197 67.9062 12.1144 67.9062 7.7311C67.9062 3.28308 64.9429 0.63536 59.0334 0.63536V0.634316ZM59.0174 4.21089C59.4035 4.2097 59.7893 4.2327 60.1728 4.27977L55.091 9.57522C54.8572 9.01285 54.7433 8.4043 54.7573 7.79163C54.7533 5.63233 55.8015 4.21193 59.0174 4.21193V4.21089ZM59.0334 11.3995C58.6412 11.4012 58.2493 11.3775 57.8599 11.3285L62.9878 5.98717C63.229 6.5539 63.3444 7.16995 63.3255 7.78954C63.3275 9.88831 62.3695 11.4006 59.0334 11.4006V11.3995Z" fill="#394149"/>
</svg>
