<svg width="131" height="31" viewBox="0 0 131 31" fill="none" xmlns="http://www.w3.org/2000/svg">
<path d="M31.7505 7.27972H34.7569V22.3602H31.7505V7.27972Z" fill="#394149"/>
<path d="M36.4404 17.1942C36.4404 16.1092 36.7498 15.0487 37.3292 14.147C37.9087 13.2453 38.7321 12.5431 39.6952 12.1293C40.6583 11.7156 41.7177 11.6089 42.7391 11.8229C43.7605 12.0368 44.6978 12.5618 45.4324 13.3312C46.167 14.1006 46.6657 15.0798 46.8653 16.1446C47.0649 17.2095 46.9564 18.3121 46.5536 19.3127C46.1507 20.3133 45.4717 21.1669 44.6026 21.7651C43.7335 22.3634 42.7133 22.6795 41.6715 22.6733C40.9805 22.6789 40.2954 22.5408 39.6563 22.267C39.0172 21.9933 38.4371 21.5894 37.9499 21.0791C37.4626 20.5688 37.0781 19.9623 36.8189 19.2952C36.5598 18.6281 36.4311 17.9138 36.4404 17.1942ZM43.9764 17.1942C43.9646 16.7265 43.8206 16.2727 43.5624 15.8898C43.3043 15.5068 42.9435 15.2116 42.5251 15.041C42.1067 14.8705 41.6493 14.8322 41.2101 14.931C40.7709 15.0297 40.3694 15.2612 40.0559 15.5963C39.7423 15.9314 39.5306 16.3554 39.4472 16.8152C39.3638 17.275 39.4124 17.7501 39.587 18.1813C39.7615 18.6124 40.0543 18.9804 40.4286 19.2392C40.803 19.498 41.2422 19.6361 41.6915 19.6363C41.9975 19.6425 42.3013 19.5829 42.5841 19.4613C42.8669 19.3397 43.1226 19.1586 43.3351 18.9294C43.5477 18.7002 43.7126 18.4278 43.8195 18.1293C43.9263 17.8307 43.9729 17.5124 43.9563 17.1942H43.9764Z" fill="#394149"/>
<path d="M58.7975 12.0283V21.8489C58.7975 25.3138 56.192 26.7853 53.5564 26.7853C52.6268 26.8648 51.6943 26.6724 50.864 26.2299C50.0336 25.7874 49.3384 25.1123 48.8565 24.2806L51.3918 22.7569C51.5973 23.1883 51.9241 23.5442 52.3287 23.7773C52.7333 24.0103 53.1965 24.1094 53.6566 24.0614C53.9497 24.099 54.2472 24.0687 54.5277 23.9727C54.8082 23.8766 55.0649 23.7172 55.2794 23.5058C55.4939 23.2944 55.6608 23.0362 55.7684 22.7498C55.8759 22.4634 55.9213 22.1557 55.9014 21.8489V20.8992C55.5515 21.3409 55.1076 21.6917 54.6049 21.9236C54.1022 22.1554 53.5545 22.2621 53.0052 22.235C51.6763 22.235 50.4019 21.6853 49.4622 20.7067C48.5225 19.7281 47.9946 18.4008 47.9946 17.0169C47.9946 15.6329 48.5225 14.3056 49.4622 13.327C50.4019 12.3484 51.6763 11.7987 53.0052 11.7987C53.5545 11.7716 54.1022 11.8783 54.6049 12.1102C55.1076 12.342 55.5515 12.6928 55.9014 13.1345V12.0909L58.7975 12.0283ZM55.9014 16.9855C55.9214 16.4862 55.7975 15.9921 55.5457 15.5667C55.2938 15.1413 54.9256 14.8041 54.4882 14.5984C54.0509 14.3927 53.5645 14.328 53.0915 14.4125C52.6186 14.4971 52.1807 14.727 51.8343 15.0728C51.4878 15.4186 51.2486 15.8644 51.1474 16.3529C51.0462 16.8414 51.0876 17.3502 51.2663 17.814C51.445 18.2778 51.7529 18.6753 52.1503 18.9554C52.5477 19.2356 53.0164 19.3855 53.4963 19.3859C53.8094 19.4094 54.1238 19.3642 54.4191 19.2533C54.7144 19.1424 54.9841 18.9682 55.2108 18.742C55.4374 18.5158 55.616 18.2426 55.7349 17.9401C55.8539 17.6375 55.9106 17.3123 55.9014 16.9855Z" fill="#394149"/>
<path d="M60.4916 17.1943C60.4916 16.1102 60.8004 15.0505 61.3789 14.1492C61.9575 13.2479 62.7797 12.5457 63.7417 12.1313C64.7036 11.7169 65.762 11.609 66.7828 11.8213C67.8036 12.0335 68.7411 12.5564 69.4764 13.3237C70.2118 14.091 70.7121 15.0683 70.914 16.1318C71.1158 17.1953 71.0102 18.2973 70.6105 19.2983C70.2107 20.2993 69.5348 21.1543 68.6683 21.7551C67.8018 22.3559 66.7837 22.6755 65.7427 22.6734C65.0504 22.6804 64.3637 22.5434 63.7229 22.2704C63.0821 21.9974 62.5001 21.5939 62.011 21.0836C61.522 20.5732 61.1356 19.9664 60.8747 19.2985C60.6138 18.6307 60.4835 17.9153 60.4916 17.1943ZM68.0275 17.1943C68.0157 16.7261 67.8714 16.272 67.6128 15.8888C67.3543 15.5056 66.9928 15.2104 66.5738 15.0402C66.1549 14.8699 65.697 14.8323 65.2575 14.9319C64.8181 15.0315 64.4166 15.264 64.1035 15.6001C63.7904 15.9363 63.5794 16.3612 63.4972 16.8217C63.4149 17.2822 63.465 17.7577 63.6411 18.1886C63.8172 18.6196 64.1114 18.9869 64.4871 19.2444C64.8627 19.5019 65.303 19.6383 65.7527 19.6364C66.0586 19.6426 66.3625 19.5831 66.6453 19.4614C66.9281 19.3398 67.1837 19.1587 67.3963 18.9295C67.6088 18.7003 67.7737 18.4279 67.8806 18.1294C67.9875 17.8308 68.0341 17.5125 68.0175 17.1943H68.0275Z" fill="#394149"/>
<path d="M72.3867 9.26258C72.3867 8.89517 72.4913 8.53601 72.6873 8.23051C72.8833 7.92502 73.1619 7.68692 73.4879 7.54631C73.8138 7.40571 74.1725 7.36892 74.5185 7.4406C74.8645 7.51228 75.1824 7.68921 75.4318 7.94901C75.6813 8.20881 75.8512 8.53981 75.92 8.90017C75.9888 9.26052 75.9535 9.63404 75.8185 9.97348C75.6835 10.3129 75.4549 10.6031 75.1615 10.8072C74.8682 11.0113 74.5233 11.1203 74.1705 11.1203C73.699 11.1148 73.2483 10.9174 72.9149 10.5702C72.5815 10.2229 72.3919 9.75359 72.3867 9.26258ZM72.6773 12.0282H75.6837V22.3602H72.6773V12.0282Z" fill="#394149"/>
<path d="M88.5507 17.1942C88.5844 17.8814 88.4872 18.5687 88.2649 19.2166C88.0425 19.8645 87.6994 20.4602 87.2551 20.9694C86.8108 21.4786 86.2742 21.8914 85.6762 22.1838C85.0782 22.4762 84.4305 22.6426 83.7705 22.6733C83.2105 22.7122 82.6492 22.6187 82.1287 22.4001C81.6081 22.1814 81.1417 21.8432 80.7642 21.4105V26.5139H77.7578V12.0282H80.7642V12.9988C81.1422 12.5675 81.6089 12.2308 82.1296 12.0139C82.6502 11.797 83.2112 11.7056 83.7705 11.7464C84.4279 11.7773 85.073 11.9426 85.669 12.2331C86.2649 12.5236 86.8001 12.9334 87.244 13.4393C87.6879 13.9452 88.0317 14.5372 88.2559 15.1814C88.4801 15.8257 88.5803 16.5097 88.5507 17.1942ZM85.5443 17.1942C85.5325 16.7095 85.3835 16.2392 85.1161 15.8423C84.8487 15.4454 84.4747 15.1395 84.0411 14.9629C83.6075 14.7864 83.1335 14.7471 82.6785 14.8499C82.2235 14.9528 81.8077 15.1932 81.4834 15.541C81.159 15.8889 80.9405 16.3287 80.8551 16.8054C80.7698 17.282 80.8214 17.7743 81.0036 18.2205C81.1857 18.6668 81.4903 19.0471 81.8791 19.3138C82.268 19.5805 82.7237 19.7217 83.1893 19.7198C83.5082 19.7339 83.8264 19.6777 84.1229 19.5547C84.4195 19.4318 84.6877 19.245 84.9101 19.0065C85.1325 18.768 85.3039 18.4833 85.4132 18.171C85.5225 17.8586 85.5672 17.5258 85.5443 17.1942Z" fill="#394149"/>
<path d="M97.7 19.2606C97.7 21.6401 95.6958 22.6524 93.5713 22.6524C92.7048 22.7336 91.8348 22.5424 91.0738 22.1033C90.3128 21.6642 89.6957 20.9976 89.3022 20.1894L91.8877 18.6657C91.9902 19.0381 92.2123 19.3626 92.5169 19.5849C92.8215 19.8071 93.1902 19.9137 93.5613 19.8868C94.2728 19.8868 94.6335 19.6572 94.6335 19.2397C94.6335 18.1022 89.7532 18.7075 89.7532 15.1278C89.7532 12.8735 91.5771 11.7464 93.6414 11.7464C94.4261 11.7098 95.2057 11.8952 95.8974 12.2829C96.589 12.6707 97.167 13.2462 97.5698 13.9485L94.9843 15.3678C94.8701 15.0986 94.6834 14.8696 94.4469 14.7084C94.2104 14.5473 93.9341 14.461 93.6515 14.4599C93.1304 14.4599 92.8197 14.6686 92.8197 15.0339C92.8197 16.2236 97.7 15.4409 97.7 19.2606Z" fill="#394149"/>
<path d="M108.593 12.0283V22.3604H105.587V21.3898C105.245 21.8194 104.812 22.1594 104.321 22.3824C103.83 22.6054 103.296 22.7051 102.761 22.6735C100.757 22.6735 99.043 21.181 99.043 18.3945V12.0283H102.049V17.9249C102.026 18.1714 102.054 18.4203 102.131 18.6544C102.209 18.8886 102.335 19.1023 102.5 19.2809C102.665 19.4596 102.865 19.5988 103.086 19.689C103.308 19.7792 103.546 19.8182 103.783 19.8034C104.865 19.8034 105.627 19.1355 105.627 17.7161V12.0283H108.593Z" fill="#394149"/>
<path d="M125.629 16.0149V22.3602H122.623V16.2863C122.623 15.2426 122.152 14.5956 121.2 14.5956C120.248 14.5956 119.647 15.3157 119.647 16.5367V22.3602H116.64V16.2863C116.64 15.2426 116.169 14.5956 115.217 14.5956C114.265 14.5956 113.664 15.3157 113.664 16.5367V22.3602H110.658V12.0282H113.664V12.9779C113.975 12.5584 114.382 12.2261 114.847 12.0111C115.313 11.7961 115.822 11.7052 116.33 11.7465C116.838 11.7188 117.345 11.8294 117.8 12.0672C118.255 12.3051 118.643 12.6621 118.925 13.1032C119.255 12.6424 119.692 12.2762 120.195 12.039C120.698 11.8017 121.251 11.7011 121.801 11.7465C124.146 11.7465 125.629 13.4371 125.629 16.0149Z" fill="#394149"/>
<path d="M13.8425 4.56633V0.130859H0.414062V30.6051H13.8425V26.1697C11.0917 26.1697 8.45354 25.0316 6.50842 23.0059C4.5633 20.9802 3.47054 18.2328 3.47054 15.368C3.47054 12.5032 4.5633 9.75576 6.50842 7.73006C8.45354 5.70435 11.0917 4.56633 13.8425 4.56633Z" fill="#394149"/>
<path d="M13.8423 4.56628V26.1696C16.5931 26.1696 19.2313 25.0316 21.1764 23.0059C23.1215 20.9802 24.2143 18.2327 24.2143 15.3679C24.2143 12.5032 23.1215 9.75572 21.1764 7.73002C19.2313 5.70431 16.5931 4.56628 13.8423 4.56628Z" fill="#394149"/>
<path d="M128.155 11.9657C129.372 11.9657 130.36 10.9377 130.36 9.66966C130.36 8.40161 129.372 7.37366 128.155 7.37366C126.937 7.37366 125.95 8.40161 125.95 9.66966C125.95 10.9377 126.937 11.9657 128.155 11.9657Z" fill="#394149"/>
</svg>
