<svg width="120" height="29" viewBox="0 0 120 29" fill="none" xmlns="http://www.w3.org/2000/svg">
<path d="M35.1235 8.14916H38.1299V20.8085H35.1235V8.14916ZM39.3224 16.0286C39.3224 12.8977 41.1663 11.0296 44.0124 11.0296C46.8584 11.0296 48.7023 12.8977 48.7023 16.0286C48.7023 19.1595 46.8985 21.0381 44.0124 21.0381C41.1263 21.0381 39.3224 19.2117 39.3224 16.0286ZM45.6859 16.0286C45.6859 14.3066 45.0345 13.2943 44.0124 13.2943C42.9902 13.2943 42.3488 14.3379 42.3488 16.0286C42.3488 17.7193 42.9802 18.7421 44.0124 18.7421C45.0446 18.7421 45.6859 17.7819 45.6859 16.039V16.0286ZM49.8347 21.4242H52.7208C52.8582 21.742 53.0904 22.0051 53.3829 22.1743C53.6754 22.3436 54.0126 22.4099 54.3443 22.3635C55.4867 22.3635 56.0879 21.7164 56.0879 20.7772V19.0238H56.0278C55.7883 19.5612 55.3996 20.0115 54.912 20.3166C54.4243 20.6216 53.8601 20.7675 53.292 20.7354C51.0974 20.7354 49.6443 18.9925 49.6443 15.9973C49.6443 13.0021 51.0272 11.1131 53.3321 11.1131C53.9179 11.0892 54.4968 11.2523 54.9911 11.5806C55.4855 11.9089 55.8717 12.3866 56.098 12.9499V11.207H59.1043V20.7041C59.1043 22.9897 57.1702 24.409 54.3142 24.409C51.6586 24.409 50.0051 23.1671 49.8347 21.4346V21.4242ZM56.098 16.0182C56.098 14.4945 55.4265 13.5343 54.3643 13.5343C53.302 13.5343 52.6507 14.484 52.6507 16.0182C52.6507 17.5523 53.292 18.4185 54.3643 18.4185C55.4366 18.4185 56.098 17.5732 56.098 16.0286V16.0182ZM60.2367 16.0182C60.2367 12.8873 62.0806 11.0192 64.9267 11.0192C67.7727 11.0192 69.6266 12.8873 69.6266 16.0182C69.6266 19.1491 67.8228 21.0276 64.9267 21.0276C62.0305 21.0276 60.2367 19.2117 60.2367 16.0286V16.0182ZM66.6002 16.0182C66.6002 14.2962 65.9488 13.2839 64.9267 13.2839C63.9045 13.2839 63.3133 14.3379 63.3133 16.039C63.3133 17.7402 63.9446 18.7525 64.9668 18.7525C65.9889 18.7525 66.6002 17.7819 66.6002 16.039V16.0182ZM70.7691 8.93189C70.7612 8.61578 70.8436 8.30435 71.0059 8.03708C71.1682 7.76981 71.403 7.55874 71.6806 7.43063C71.9582 7.30251 72.2661 7.26312 72.5652 7.31744C72.8643 7.37177 73.1412 7.51736 73.3608 7.73577C73.5804 7.95418 73.7327 8.23557 73.7986 8.54427C73.8644 8.85297 73.8407 9.17507 73.7306 9.46974C73.6204 9.76442 73.4287 10.0184 73.1798 10.1995C72.9309 10.3806 72.6359 10.4806 72.3324 10.4869C72.1311 10.5013 71.9292 10.4722 71.7393 10.4015C71.5493 10.3307 71.3755 10.2198 71.2287 10.0757C71.0819 9.93165 70.9653 9.75752 70.8862 9.56427C70.8071 9.37102 70.7672 9.16283 70.7691 8.95276V8.93189ZM70.7691 11.2279H73.7754V20.8085H70.7691V11.2279ZM84.6885 16.0182C84.6885 19.1491 83.3557 20.9337 81.0709 20.9337C80.485 20.9729 79.9017 20.8237 79.3998 20.5064C78.898 20.1891 78.5018 19.7189 78.2649 19.1595H78.2048V23.8767H75.1984V11.207H78.2048V12.9186H78.2649C78.4908 12.3499 78.8794 11.8675 79.3779 11.537C79.8764 11.2065 80.4605 11.0439 81.0508 11.0713C83.3557 11.1131 84.7286 12.9081 84.7286 16.039L84.6885 16.0182ZM81.6822 16.0182C81.6822 14.4945 81.0107 13.5239 79.9585 13.5239C78.9063 13.5239 78.2349 14.5049 78.2248 16.0182C78.2148 17.5314 78.9063 18.502 79.9585 18.502C81.0107 18.502 81.6822 17.5523 81.6822 16.039V16.0182ZM89.8495 11.0087C92.3448 11.0087 93.858 12.2402 93.9281 14.2127H91.1923C91.1923 13.5343 90.6512 13.1064 89.8194 13.1064C88.9876 13.1064 88.6169 13.4404 88.6169 13.9309C88.6169 14.4214 88.9476 14.578 89.619 14.7241L91.5431 15.1311C93.3769 15.5381 94.1586 16.3104 94.1586 17.761C94.1586 19.744 92.4249 21.0172 89.8695 21.0172C87.3141 21.0172 85.6406 19.744 85.5103 17.7924H88.4064C88.4966 18.502 89.0378 18.9195 89.9196 18.9195C90.8015 18.9195 91.2023 18.6168 91.2023 18.1159C91.2023 17.6149 90.9217 17.5106 90.2002 17.354L88.4665 16.9679C86.6727 16.5817 85.7308 15.5903 85.7308 14.1292C85.7508 12.2507 87.3642 11.0296 89.8495 11.0296V11.0087ZM104.19 20.7876H101.294V19.003H101.234C101.074 19.6021 100.723 20.1266 100.238 20.4892C99.7534 20.8518 99.164 21.0307 98.5679 20.9963C98.1112 21.0234 97.6542 20.948 97.2278 20.7753C96.8014 20.6026 96.4156 20.3366 96.0964 19.9953C95.7772 19.6539 95.5321 19.2452 95.3776 18.7968C95.2231 18.3483 95.1628 17.8706 95.2008 17.3958V11.207H98.2072V16.6757C98.2072 17.8132 98.7684 18.4185 99.7003 18.4185C99.9189 18.419 100.135 18.3708 100.334 18.2772C100.533 18.1836 100.711 18.0467 100.855 17.8757C101 17.7047 101.107 17.5036 101.171 17.2859C101.234 17.0681 101.252 16.8387 101.224 16.613V11.207H104.23L104.19 20.7876ZM105.643 11.207H108.549V13.0543H108.609C108.769 12.463 109.112 11.9436 109.585 11.5772C110.059 11.2108 110.635 11.0182 111.225 11.0296C111.825 10.9796 112.421 11.1665 112.894 11.5533C113.368 11.94 113.684 12.4983 113.78 13.1169H113.84C114.022 12.4917 114.398 11.9472 114.91 11.5693C115.422 11.1914 116.04 11.0016 116.666 11.0296C117.075 11.0153 117.482 11.0907 117.861 11.251C118.24 11.4113 118.583 11.6528 118.866 11.9599C119.15 12.267 119.368 12.6328 119.507 13.0335C119.646 13.4342 119.702 13.8608 119.673 14.2857V20.8085H116.666V15.1206C116.666 14.077 116.215 13.5969 115.374 13.5969C115.186 13.5953 115 13.6356 114.828 13.7151C114.657 13.7946 114.504 13.9115 114.379 14.0579C114.255 14.2043 114.162 14.3768 114.107 14.5637C114.052 14.7506 114.036 14.9477 114.061 15.1415V20.8085H111.205V15.0789C111.205 14.1188 110.754 13.5969 109.932 13.5969C109.742 13.597 109.554 13.639 109.381 13.7201C109.208 13.8012 109.054 13.9197 108.928 14.0676C108.802 14.2155 108.707 14.3896 108.651 14.5783C108.594 14.767 108.577 14.9661 108.599 15.1624V20.8085H105.593L105.643 11.207Z" fill="#394149"/>
<path d="M26.716 8.72306C26.206 7.50864 25.531 6.3769 24.7117 5.36255C23.5006 3.81832 21.9892 2.55871 20.277 1.66662C18.5648 0.774529 16.6906 0.270191 14.7777 0.186796C12.8648 0.103401 10.9567 0.442838 9.17885 1.18277C7.40102 1.9227 5.79382 3.04635 4.46303 4.47977C3.13223 5.91318 2.10801 7.62385 1.45778 9.4992C0.807552 11.3745 0.546055 13.372 0.690502 15.3602C0.834949 17.3484 1.38207 19.2822 2.29584 21.0343C3.20962 22.7864 4.46933 24.3171 5.99207 25.5256C6.96915 26.3166 8.04878 26.9596 9.19887 27.4355C10.8113 28.1236 12.537 28.4781 14.2796 28.4791C17.8767 28.4708 21.3238 26.9776 23.8654 24.3268C26.407 21.676 27.8357 18.0839 27.8384 14.3378C27.841 12.4056 27.4588 10.4937 26.716 8.72306ZM14.2696 3.05611C15.8345 3.05593 17.3805 3.41213 18.7992 4.09974C18.4532 4.25542 18.0895 4.36416 17.7169 4.42327C16.4909 4.6081 15.3552 5.20086 14.4792 6.1131C13.6033 7.02534 13.0341 8.20813 12.8566 9.48492C12.7787 10.201 12.466 10.8671 11.9713 11.371C11.4765 11.8748 10.83 12.1855 10.1409 12.2506C8.91486 12.4354 7.77913 13.0281 6.90318 13.9404C6.02723 14.8526 5.45804 16.0354 5.28057 17.3122C5.22048 17.9931 4.94154 18.6329 4.48889 19.1281C3.70789 17.4095 3.35705 15.5131 3.469 13.6153C3.58096 11.7176 4.15208 9.88014 5.12922 8.27403C6.10635 6.66793 7.45775 5.34535 9.05764 4.42938C10.6575 3.51341 12.4539 3.03382 14.2796 3.03523L14.2696 3.05611ZM5.98206 21.6433C6.10231 21.5285 6.22257 21.4241 6.34282 21.2989C7.23436 20.3987 7.80664 19.2104 7.96626 17.9279C8.03098 17.207 8.34005 16.5337 8.8381 16.0285C9.31737 15.509 9.96246 15.1898 10.6519 15.131C11.8779 14.9462 13.0137 14.3534 13.8896 13.4412C14.7656 12.5289 15.3348 11.3461 15.5122 10.0694C15.5556 9.31534 15.8663 8.60496 16.3841 8.07601C16.8752 7.56655 17.5264 7.25894 18.218 7.20978C19.3443 7.0484 20.3947 6.52695 21.2243 5.71739C22.169 6.53358 22.9694 7.51546 23.5894 8.6187C23.5513 8.67229 23.5076 8.72129 23.4591 8.76481C22.9807 9.28892 22.3365 9.61512 21.6452 9.68321C20.418 9.8648 19.2805 10.4565 18.404 11.3694C17.5275 12.2822 16.9593 13.4668 16.7849 14.7449C16.7143 15.4633 16.4074 16.1343 15.9161 16.644C15.4248 17.1537 14.7794 17.4709 14.0892 17.5418C12.8596 17.7252 11.7197 18.3168 10.8387 19.2287C9.95763 20.1406 9.38256 21.3241 9.19887 22.6034C9.14494 23.1135 8.97674 23.6032 8.70783 24.0332C7.67965 23.3975 6.75879 22.5901 5.98206 21.6433ZM14.2696 25.6717C13.2527 25.6729 12.2407 25.5253 11.2632 25.2334C11.5976 24.5843 11.815 23.8768 11.9046 23.1461C11.9748 22.4293 12.2804 21.7596 12.7696 21.25C13.2589 20.7405 13.9019 20.4223 14.5903 20.3492C15.8181 20.1664 16.9561 19.5746 17.834 18.6622C18.712 17.7498 19.2826 16.5658 19.4606 15.2875C19.5308 14.5707 19.8364 13.901 20.3256 13.3914C20.8149 12.8819 21.4579 12.5637 22.1463 12.4906C23.0703 12.3654 23.9509 12.0072 24.7117 11.447C25.1342 13.1146 25.1842 14.8608 24.858 16.5518C24.5318 18.2427 23.838 19.8333 22.8299 21.2016C21.8217 22.5699 20.526 23.6795 19.0422 24.4454C17.5583 25.2112 15.9257 25.6129 14.2696 25.6196V25.6717Z" fill="#394149"/>
</svg>
