<svg width="136" height="29" viewBox="0 0 136 29" fill="none" xmlns="http://www.w3.org/2000/svg">
<path d="M20.4578 12.3882C20.078 12.7862 19.7872 13.2664 19.606 13.7948C19.4248 14.3232 19.3578 14.8866 19.4096 15.4451L19.3916 15.4263C19.4448 16.0836 19.3597 16.7452 19.1422 17.3647C18.9246 17.9843 18.5799 18.5469 18.132 19.0134C17.684 19.4798 17.1438 19.8389 16.5489 20.0654C15.954 20.292 15.3188 20.3806 14.6876 20.3251L14.7056 20.3439C13.9506 20.2707 13.1923 20.4419 12.5341 20.8339C11.8758 21.226 11.3497 21.82 11.0275 22.5348C10.7053 23.2497 10.6027 24.0507 10.7336 24.8285C10.8644 25.6064 11.2225 26.3232 11.759 26.8814C12.2954 27.4395 12.9841 27.8118 13.7311 27.9474C14.4781 28.083 15.2471 27.9754 15.9332 27.6392C16.6194 27.303 17.1892 26.7546 17.5651 26.0687C17.941 25.3829 18.1046 24.593 18.0337 23.8067L18.0527 23.8255C17.9994 23.1682 18.0845 22.5066 18.3021 21.8871C18.5197 21.2676 18.8644 20.7049 19.3123 20.2385C19.7602 19.772 20.3005 19.4129 20.8954 19.1864C21.4903 18.9598 22.1255 18.8712 22.7567 18.9267L22.7376 18.9079C23.3544 18.9656 23.9752 18.8603 24.5425 18.6017C25.1097 18.3431 25.6051 17.9395 25.9828 17.4284C26.3604 16.9173 26.608 16.3152 26.7027 15.6779C26.7974 15.0406 26.7361 14.3887 26.5244 13.7826C26.3128 13.1765 25.9576 12.6359 25.4919 12.2109C25.0262 11.7858 24.465 11.49 23.8604 11.351C23.2557 11.2119 22.6271 11.2341 22.0328 11.4154C21.4385 11.5967 20.8978 11.9314 20.4608 12.3882H20.4578Z" fill="#394149"/>
<path d="M13.0653 17.883L13.0463 17.8642C13.5827 17.9205 14.1245 17.8519 14.6324 17.6634C15.1403 17.4749 15.6017 17.1713 15.9831 16.7744C16.3645 16.3775 16.6564 15.8972 16.8378 15.3684C17.0191 14.8396 17.0854 14.2755 17.0317 13.7167L17.0508 13.7355C16.9975 13.0782 17.0826 12.4167 17.3001 11.7971C17.5177 11.1776 17.8625 10.6149 18.3104 10.1485C18.7583 9.68199 19.2985 9.32295 19.8934 9.09638C20.4883 8.86981 21.1235 8.78117 21.7547 8.83666L21.7357 8.81788C22.4908 8.89173 23.2493 8.7212 23.908 8.32956C24.5666 7.93792 25.0931 7.34423 25.4158 6.62947C25.7385 5.91471 25.8417 5.11368 25.7111 4.33564C25.5806 3.5576 25.2228 2.84042 24.6866 2.28193C24.1503 1.72344 23.4617 1.35083 22.7146 1.21492C21.9675 1.079 21.1983 1.18641 20.512 1.52248C19.8257 1.85855 19.2556 2.40693 18.8795 3.09282C18.5035 3.7787 18.3397 4.56871 18.4106 5.35507L18.3926 5.33524C18.4461 5.99262 18.3611 6.65423 18.1436 7.27387C17.9261 7.8935 17.5813 8.45622 17.1334 8.92272C16.6854 9.38922 16.1451 9.74826 15.5501 9.97477C14.9552 10.2013 14.3199 10.2898 13.6886 10.2341L13.7067 10.2539C13.1702 10.1976 12.6284 10.2662 12.1205 10.4547C11.6126 10.6432 11.1513 10.9468 10.7699 11.3437C10.3885 11.7406 10.0965 12.2209 9.91519 12.7497C9.73383 13.2785 9.66757 13.8426 9.72122 14.4014L9.70319 14.3826C9.75629 15.0399 9.67106 15.7013 9.45344 16.3208C9.23583 16.9403 8.89106 17.5028 8.44319 17.9692C7.99533 18.4357 7.45514 18.7947 6.86032 19.0214C6.2655 19.248 5.63036 19.3368 4.99921 19.2814L5.01725 19.3002C4.26217 19.2264 3.5036 19.3969 2.84499 19.7885C2.18639 20.1802 1.65983 20.7739 1.33713 21.4886C1.01443 22.2034 0.911294 23.0044 1.0418 23.7825C1.17231 24.5605 1.5301 25.2777 2.06637 25.8362C2.60264 26.3947 3.29129 26.7673 4.03838 26.9032C4.78547 27.0391 5.55463 26.9317 6.24096 26.5956C6.92728 26.2596 7.49735 25.7112 7.87341 25.0253C8.24947 24.3394 8.41321 23.5494 8.3423 22.763L8.36134 22.7818C8.30806 22.1245 8.39317 21.463 8.61072 20.8434C8.82828 20.2239 9.17304 19.6612 9.62094 19.1948C10.0689 18.7283 10.6091 18.3692 11.204 18.1427C11.7989 17.9161 12.4341 17.8275 13.0653 17.883Z" fill="#394149"/>
<path d="M6.34913 15.7884C6.72896 15.3905 7.01976 14.9103 7.20079 14.3819C7.38181 13.8535 7.44859 13.2899 7.39635 12.7316L7.41539 12.7503C7.36207 12.0928 7.44722 11.4311 7.66489 10.8114C7.88256 10.1917 8.22751 9.6289 8.67564 9.1624C9.12377 8.6959 9.66428 8.3369 10.2594 8.11047C10.8546 7.88405 11.49 7.79565 12.1214 7.85146L12.1023 7.83268C12.8572 7.90632 13.6154 7.7357 14.2737 7.34409C14.932 6.95247 15.4583 6.35893 15.7808 5.64439C16.1033 4.92985 16.2063 4.12911 16.0758 3.35136C15.9453 2.57361 15.5877 1.8567 15.0516 1.29841C14.5155 0.740127 13.8271 0.36763 13.0803 0.231722C12.3335 0.0958149 11.5646 0.203113 10.8785 0.538983C10.1924 0.874853 9.62247 1.42294 9.24643 2.10852C8.8704 2.79409 8.70657 3.58377 8.77728 4.36986L8.75924 4.35108C8.81252 5.00842 8.72742 5.66995 8.50986 6.2895C8.29231 6.90905 7.94755 7.47169 7.49964 7.93816C7.05173 8.40462 6.51148 8.76367 5.91657 8.99024C5.32167 9.2168 4.68646 9.30544 4.05527 9.24995L4.07331 9.26873C3.45657 9.21114 2.83585 9.31659 2.26867 9.57533C1.70149 9.83407 1.20619 10.2377 0.82868 10.7489C0.45117 11.26 0.203658 11.8622 0.109082 12.4995C0.0145062 13.1368 0.0759254 13.7886 0.287649 14.3946C0.499372 15.0006 0.85455 15.5412 1.32027 15.9662C1.78599 16.3911 2.34717 16.6868 2.95183 16.8258C3.55649 16.9648 4.18505 16.9426 4.77928 16.7612C5.3735 16.5799 5.91415 16.2453 6.35114 15.7884H6.34913Z" fill="#394149"/>
<path d="M37.3921 5.37915H40.3684V20.4628H37.3921V5.37915Z" fill="#394149"/>
<path d="M42.0539 15.2978C42.0497 14.2138 42.3545 13.1529 42.9298 12.2496C43.505 11.3462 44.3247 10.6409 45.2852 10.2231C46.2456 9.80525 47.3035 9.69368 48.3249 9.90249C49.3462 10.1113 50.2851 10.6311 51.0226 11.396C51.7601 12.161 52.2629 13.1366 52.4675 14.1995C52.6721 15.2623 52.5693 16.3644 52.1719 17.3663C51.7746 18.3681 51.1006 19.2247 50.2355 19.8273C49.3703 20.43 48.3529 20.7517 47.312 20.7517C46.6211 20.7599 45.9355 20.6246 45.2954 20.3537C44.6553 20.0828 44.0734 19.6817 43.5838 19.1739C43.0943 18.6661 42.7068 18.0618 42.4441 17.3963C42.1814 16.7307 42.0487 16.0173 42.0539 15.2978ZM49.5939 15.2978C49.5814 14.8305 49.4371 14.3775 49.1787 13.9952C48.9204 13.613 48.5597 13.3185 48.1415 13.1487C47.7234 12.9788 47.2665 12.9411 46.8278 13.0402C46.3892 13.1393 45.9884 13.3708 45.6755 13.7059C45.3625 14.0409 45.1514 14.4646 45.0684 14.924C44.9854 15.3833 45.0343 15.858 45.2089 16.2885C45.3836 16.7191 45.6762 17.0865 46.0503 17.3448C46.4243 17.6032 46.8632 17.7409 47.312 17.7409C47.6194 17.7494 47.9251 17.6916 48.21 17.5709C48.4948 17.4503 48.7525 17.2695 48.9669 17.0399C49.1813 16.8104 49.3477 16.5371 49.4556 16.2372C49.5635 15.9374 49.6106 15.6175 49.5939 15.2978Z" fill="#394149"/>
<path d="M64.4324 10.1318V19.942C64.4324 23.4132 61.8329 24.8805 59.1943 24.8805C58.2653 24.953 57.3351 24.7575 56.5056 24.3157C55.6762 23.8739 54.9797 23.2027 54.4923 22.3758L57.0317 20.8469C57.2366 21.2779 57.5629 21.6335 57.9671 21.8661C58.3713 22.0987 58.8341 22.1971 59.2935 22.1483C59.5871 22.1907 59.8862 22.1637 60.1684 22.0695C60.4507 21.9753 60.709 21.8162 60.9243 21.6039C61.1395 21.3917 61.3062 21.1317 61.412 20.8434C61.5177 20.555 61.5599 20.2455 61.5353 19.9379V18.9934C61.1868 19.4375 60.7431 19.7903 60.24 20.0236C59.7369 20.2568 59.1882 20.364 58.6381 20.3365C57.3292 20.2935 56.0876 19.7218 55.1763 18.7423C54.265 17.7628 53.7554 16.4525 53.7554 15.0886C53.7554 13.7247 54.265 12.4144 55.1763 11.4349C56.0876 10.4554 57.3292 9.88364 58.6381 9.84064C59.1882 9.81315 59.7369 9.92034 60.24 10.1536C60.7431 10.3869 61.1868 10.7397 61.5353 11.1838V10.1297L64.4324 10.1318ZM61.5363 15.0902C61.5563 14.5906 61.4323 14.0963 61.1802 13.6708C60.9282 13.2453 60.5596 12.908 60.122 12.7025C59.6844 12.497 59.1977 12.4325 58.7246 12.5175C58.2515 12.6024 57.8136 12.8329 57.4674 13.1792C57.1211 13.5255 56.8823 13.9718 56.7816 14.4607C56.681 14.9495 56.7231 15.4586 56.9026 15.9223C57.0821 16.386 57.3907 16.7831 57.7888 17.0626C58.1868 17.3421 58.6561 17.4911 59.1362 17.4905C59.4489 17.5133 59.7627 17.4675 60.0574 17.3563C60.3521 17.245 60.6212 17.0707 60.8473 16.8446C61.0734 16.6185 61.2515 16.3455 61.3702 16.0434C61.4889 15.7412 61.5454 15.4165 61.5363 15.0902Z" fill="#394149"/>
<path d="M66.1173 15.2978C66.1132 14.2138 66.418 13.1529 66.9932 12.2496C67.5685 11.3462 68.3882 10.6409 69.3487 10.2231C70.3091 9.80525 71.367 9.69368 72.3883 9.90249C73.4097 10.1113 74.3486 10.6311 75.0861 11.396C75.8235 12.161 76.3264 13.1366 76.531 14.1995C76.7356 15.2623 76.6327 16.3644 76.2354 17.3663C75.838 18.3681 75.1641 19.2247 74.2989 19.8273C73.4338 20.43 72.4163 20.7517 71.3755 20.7517C70.6846 20.7599 69.999 20.6246 69.3589 20.3537C68.7187 20.0828 68.1369 19.6817 67.6473 19.1739C67.1578 18.6661 66.7703 18.0618 66.5076 17.3963C66.2449 16.7307 66.1122 16.0173 66.1173 15.2978ZM73.6573 15.2978C73.6449 14.8305 73.5005 14.3775 73.2422 13.9952C72.9839 13.613 72.6231 13.3185 72.205 13.1487C71.7869 12.9788 71.3299 12.9411 70.8913 13.0402C70.4527 13.1393 70.0519 13.3708 69.7389 13.7059C69.426 14.0409 69.2148 14.4646 69.1319 14.924C69.0489 15.3833 69.0978 15.858 69.2724 16.2885C69.447 16.7191 69.7397 17.0865 70.1137 17.3448C70.4878 17.6032 70.9267 17.7409 71.3755 17.7409C71.6829 17.7494 71.9886 17.6916 72.2734 17.5709C72.5583 17.4503 72.816 17.2695 73.0304 17.0399C73.2448 16.8104 73.4112 16.5371 73.5191 16.2372C73.627 15.9374 73.6741 15.6175 73.6573 15.2978Z" fill="#394149"/>
<path d="M78.022 7.36301C78.022 6.99518 78.1267 6.63561 78.3229 6.32978C78.5192 6.02394 78.7981 5.78556 79.1244 5.6448C79.4507 5.50404 79.8097 5.46721 80.1561 5.53897C80.5025 5.61073 80.8207 5.78786 81.0705 6.04795C81.3202 6.30805 81.4903 6.63942 81.5592 7.00018C81.6281 7.36094 81.5927 7.73488 81.4576 8.07471C81.3224 8.41454 81.0935 8.70499 80.7999 8.90935C80.5062 9.1137 80.1609 9.22278 79.8077 9.22278C79.3356 9.21789 78.8841 9.02037 78.5502 8.67266C78.2163 8.32494 78.0267 7.85473 78.022 7.36301ZM78.3226 10.1318H81.2999V20.4638H78.3186L78.3226 10.1318Z" fill="#394149"/>
<path d="M94.1512 15.2979C94.1856 15.9807 94.09 16.6639 93.87 17.3081C93.65 17.9524 93.3099 18.545 92.8692 19.0518C92.4285 19.5587 91.8959 19.9698 91.3021 20.2616C90.7083 20.5533 90.065 20.72 89.4091 20.7519C88.8576 20.7833 88.3062 20.6864 87.7951 20.4683C87.2839 20.2503 86.8258 19.9165 86.4539 19.4912V24.5956H83.4775V10.1319H86.4539V11.1025C86.826 10.6775 87.2842 10.344 87.7953 10.1261C88.3064 9.90825 88.8577 9.81147 89.4091 9.84279C90.0651 9.87459 90.7086 10.0412 91.3025 10.333C91.8965 10.6247 92.4291 11.036 92.8698 11.543C93.3106 12.05 93.6507 12.6427 93.8706 13.2872C94.0905 13.9316 94.1859 14.6149 94.1512 15.2979ZM91.1749 15.2979C91.1632 14.8143 91.0149 14.3451 90.7485 13.9489C90.482 13.5527 90.1093 13.2472 89.6769 13.0705C89.2446 12.8939 88.7718 12.8539 88.3177 12.9557C87.8636 13.0575 87.4485 13.2965 87.1242 13.6428C86.8 13.9891 86.581 14.4273 86.4947 14.9026C86.4084 15.3779 86.4586 15.8691 86.6391 16.3148C86.8195 16.7605 87.1222 17.1408 87.5092 17.4083C87.8963 17.6757 88.3504 17.8183 88.8149 17.8183C89.1337 17.833 89.452 17.7775 89.7488 17.6552C90.0456 17.5329 90.3142 17.3466 90.537 17.1087C90.7599 16.8707 90.9319 16.5863 91.0418 16.2743C91.1517 15.9622 91.1971 15.6295 91.1749 15.2979Z" fill="#394149"/>
<path d="M103.336 17.3632C103.336 19.7395 101.352 20.7519 99.2099 20.7519C98.3442 20.8335 97.4749 20.6429 96.7144 20.2045C95.9539 19.7662 95.3371 19.1003 94.9438 18.293L97.5223 16.7641C97.6266 17.1373 97.8507 17.4619 98.1571 17.6837C98.4635 17.9056 98.8337 18.0112 99.2059 17.9831C99.9194 17.9831 100.277 17.7556 100.277 17.3433C100.277 16.2058 95.3958 16.8059 95.3958 13.2314C95.3958 10.9781 97.2217 9.84265 99.2851 9.84265C100.061 9.81709 100.829 10.0087 101.509 10.3975C102.19 10.7863 102.757 11.358 103.153 12.0531L100.614 13.4787C100.503 13.2081 100.317 12.9776 100.081 12.8159C99.8445 12.6543 99.5678 12.5686 99.2851 12.5697C98.769 12.5697 98.4513 12.7784 98.4513 13.1479C98.4553 14.3262 103.336 13.5403 103.336 17.3632Z" fill="#394149"/>
<path d="M114.208 10.1318V20.4638H111.231V19.4921C110.888 19.9209 110.452 20.2587 109.959 20.4778C109.466 20.697 108.93 20.7912 108.395 20.7528C106.391 20.7528 104.688 19.2657 104.688 16.474V10.1318H107.664V16.02C107.639 16.2661 107.666 16.5148 107.743 16.749C107.819 16.9831 107.944 17.197 108.108 17.3758C108.273 17.5546 108.472 17.694 108.694 17.7843C108.915 17.8745 109.152 17.9135 109.389 17.8985C110.481 17.8985 111.234 17.2379 111.234 15.7706V10.135L114.208 10.1318Z" fill="#394149"/>
<path d="M131.274 14.1196V20.4628H128.298V14.3878C128.298 13.3546 127.822 12.6939 126.87 12.6939C125.878 12.6939 125.321 13.4172 125.321 14.6362V20.4628H122.346V14.3878C122.346 13.3546 121.87 12.6939 120.917 12.6939C119.925 12.6939 119.37 13.4172 119.37 14.6362V20.4628H116.394V10.1308H119.37V11.0805C119.678 10.6592 120.083 10.325 120.548 10.1086C121.012 9.89224 121.521 9.80046 122.028 9.84169C122.538 9.81575 123.045 9.92766 123.5 10.1665C123.956 10.4054 124.344 10.7631 124.627 11.2047C124.957 10.7427 125.394 10.3753 125.897 10.137C126.4 9.89861 126.953 9.79701 127.504 9.84169C129.782 9.84273 131.274 11.5366 131.274 14.1196Z" fill="#394149"/>
<path d="M133.791 10.0682C135.011 10.0682 136 9.03837 136 7.76799C136 6.49762 135.011 5.46777 133.791 5.46777C132.571 5.46777 131.583 6.49762 131.583 7.76799C131.583 9.03837 132.571 10.0682 133.791 10.0682Z" fill="#394149"/>
</svg>
