<svg width="160" height="37" viewBox="0 0 160 37" fill="none" xmlns="http://www.w3.org/2000/svg">
<path d="M0.826172 0V37H159.741V0H0.826172ZM157.737 34.9127H76.5647V2.08727H157.737V34.9127Z" fill="#394149"/>
<path d="M9.27295 24.6986V12.3973H13.3496V21.4227H20.5408V24.6986H9.27295Z" fill="white"/>
<path d="M36.6134 18.4619C36.6134 22.3786 34.2664 24.8865 28.6836 24.8865C23.6129 24.8865 20.7388 22.7241 20.7388 18.4619C20.7388 14.685 23.4786 12.1155 28.6836 12.1155C33.9698 12.1155 36.6134 14.4815 36.6134 18.4619ZM32.5207 18.5088C32.5207 16.7347 31.8132 15.3122 28.6686 15.3122C25.7945 15.3122 24.8605 16.5813 24.8605 18.5088C24.8605 20.4677 25.7173 21.7368 28.6816 21.7368C31.6649 21.7368 32.5207 20.3895 32.5207 18.5088Z" fill="white"/>
<path d="M49.2236 24.6987L49.1184 23.5069C47.7547 24.5205 46.0948 25.0083 44.4234 24.8866C41.9111 24.8866 39.8187 24.1028 38.6452 22.5206C37.8713 21.3655 37.4804 19.979 37.5319 18.5715C37.4879 17.1935 37.8922 15.8405 38.6793 14.7319C39.8668 13.1967 42.0194 12.1781 45.2241 12.1781C48.9109 12.1781 51.0775 13.3532 52.0095 15.3278C52.2096 15.7928 52.3271 16.2917 52.3562 16.8004H48.456C48.3577 16.4913 48.1749 16.2189 47.9299 16.0166C47.153 15.4802 46.2252 15.2321 45.2963 15.3122C44.7514 15.2434 44.1988 15.2958 43.6748 15.466C43.1509 15.6362 42.6676 15.9203 42.2569 16.2995C41.7905 16.9642 41.5715 17.7826 41.6405 18.6028C41.5865 19.3852 41.7878 20.1638 42.2118 20.8122C42.6262 21.2142 43.1188 21.5189 43.6562 21.7054C44.1936 21.8919 44.7631 21.9561 45.3264 21.8934C46.4451 21.9881 47.5557 21.6288 48.4259 20.8904C48.6129 20.647 48.7417 20.3609 48.8017 20.0555H44.6048V17.412H52.4585V24.6987H49.2236Z" fill="white"/>
<path d="M69.4767 18.4619C69.4767 22.3786 67.1287 24.8865 61.5469 24.8865C56.4761 24.8865 53.6021 22.7241 53.6021 18.4619C53.6021 14.685 56.3419 12.1155 61.5469 12.1155C66.8291 12.1155 69.4767 14.4815 69.4767 18.4619ZM65.384 18.5088C65.384 16.7347 64.6765 15.3122 61.5319 15.3122C58.6578 15.3122 57.7238 16.5813 57.7238 18.5088C57.7238 20.4677 58.5816 21.7368 61.5449 21.7368C64.5272 21.7368 65.384 20.3895 65.384 18.5088Z" fill="white"/>
<path d="M83.4312 24.6516V12.3502H86.3373V24.6516H83.4312Z" fill="#394149"/>
<path d="M101.261 19.5118C100.524 20.5147 99.2566 20.9729 97.4698 20.9844C97.093 20.9844 92.0974 20.9687 92.0974 20.9687V24.6517H89.2534V12.3504H97.4708C98.1295 12.2778 98.7954 12.3506 99.4253 12.5638C100.055 12.7771 100.635 13.1261 101.127 13.5881C101.776 14.4692 102.092 15.5676 102.014 16.6752C102.081 17.6825 101.815 18.6832 101.261 19.5118ZM98.9289 15.5011C98.6283 15.0315 97.9799 14.7706 96.8826 14.7706H92.0824V18.5151H96.8515C98.025 18.5151 98.6433 18.2646 98.9289 17.7783C99.0987 17.4357 99.1717 17.0499 99.1394 16.6658C99.1647 16.2653 99.0923 15.8646 98.9289 15.5011Z" fill="#394149"/>
<path d="M110.395 24.8396C105.038 24.8396 103.398 22.7523 103.398 20.687H106.438C106.438 21.7056 107.777 22.4737 110.531 22.4737C113.268 22.4737 113.991 21.9717 113.991 21.1566C113.991 20.2476 113.45 19.9658 110.906 19.6684C110.405 19.6214 109.041 19.4492 108.529 19.3709C104.922 18.9472 103.533 17.8347 103.533 15.8445C103.533 13.7446 105.565 12.1625 109.973 12.1625C114.758 12.1625 116.594 14.1214 116.594 16.1586H113.588C113.588 15.1243 112.46 14.5284 109.796 14.5284C107.057 14.5284 106.471 14.9198 106.471 15.6879C106.471 16.4873 107.072 16.7378 109.978 17.0979C110.641 17.1928 112.115 17.365 112.521 17.411C115.591 17.7397 116.975 18.8992 116.975 20.9521C116.97 23.3973 114.864 24.8396 110.395 24.8396Z" fill="#394149"/>
<path d="M125.534 24.824C121.607 24.824 119.049 23.2094 119.049 19.8144V12.3502H121.922V19.8562C121.922 21.4081 123.142 22.4413 125.654 22.4413C127.926 22.4413 129.281 21.4707 129.281 19.8562V12.3502H132.125V20.0931C132.125 23.1792 129.747 24.824 125.534 24.824Z" fill="#394149"/>
<path d="M147.697 24.6516V16.4403L144.011 24.6516H141.213L137.631 16.4403V24.6516H134.925V12.3502H138.591L142.654 21.7211L146.806 12.3502H150.414V24.6516H147.697Z" fill="#394149"/>
</svg>
