<svg width="40" height="40" viewBox="0 0 40 40" fill="none" xmlns="http://www.w3.org/2000/svg">
<path fill-rule="evenodd" clip-rule="evenodd" d="M17.7574 10.7574C18.8826 9.63214 20.4087 9 22 9H25C25.5523 9 26 9.44772 26 10V14C26 14.5523 25.5523 15 25 15H22V17H25C25.3079 17 25.5987 17.1419 25.7882 17.3846C25.9777 17.6273 26.0448 17.9438 25.9701 18.2425L24.9701 22.2425C24.8589 22.6877 24.4589 23 24 23H22V30C22 30.5523 21.5523 31 21 31H17C16.4477 31 16 30.5523 16 30V23H14C13.4477 23 13 22.5523 13 22V18C13 17.4477 13.4477 17 14 17H16V15C16 13.4087 16.6321 11.8826 17.7574 10.7574ZM22 11C20.9391 11 19.9217 11.4214 19.1716 12.1716C18.4214 12.9217 18 13.9391 18 15V18C18 18.5523 17.5523 19 17 19H15V21H17C17.5523 21 18 21.4477 18 22V29H20V22C20 21.4477 20.4477 21 21 21H23.2192L23.7192 19H21C20.4477 19 20 18.5523 20 18V15C20 14.4696 20.2107 13.9609 20.5858 13.5858C20.9609 13.2107 21.4696 13 22 13H24V11H22Z" fill="#FFDE61"/>
<path fill-rule="evenodd" clip-rule="evenodd" d="M20 38C29.9411 38 38 29.9411 38 20C38 10.0589 29.9411 2 20 2C10.0589 2 2 10.0589 2 20C2 29.9411 10.0589 38 20 38ZM20 40C31.0457 40 40 31.0457 40 20C40 8.9543 31.0457 0 20 0C8.9543 0 0 8.9543 0 20C0 31.0457 8.9543 40 20 40Z" fill="#FFDE61"/>
</svg>
