<svg width="40" height="40" viewBox="0 0 40 40" fill="none" xmlns="http://www.w3.org/2000/svg">
<path fill-rule="evenodd" clip-rule="evenodd" d="M15 11C12.7909 11 11 12.7909 11 15V25C11 27.2091 12.7909 29 15 29H25C27.2091 29 29 27.2091 29 25V15C29 12.7909 27.2091 11 25 11H15ZM9 15C9 11.6863 11.6863 9 15 9H25C28.3137 9 31 11.6863 31 15V25C31 28.3137 28.3137 31 25 31H15C11.6863 31 9 28.3137 9 25V15Z" fill="#FFDE61"/>
<path fill-rule="evenodd" clip-rule="evenodd" d="M20.4833 16.9895C19.8591 16.8969 19.2217 17.0035 18.6616 17.2942C18.1015 17.5848 17.6473 18.0446 17.3636 18.6083C17.0799 19.1719 16.9811 19.8106 17.0814 20.4336C17.1816 21.0566 17.4758 21.6322 17.9219 22.0784C18.3681 22.5245 18.9437 22.8187 19.5667 22.9189C20.1896 23.0192 20.8284 22.9204 21.392 22.6367C21.9557 22.353 22.4155 21.8988 22.7061 21.3387C22.9968 20.7786 23.1034 20.1412 23.0108 19.517C22.9164 18.8803 22.6197 18.2908 22.1646 17.8357C21.7095 17.3806 21.12 17.0839 20.4833 16.9895ZM17.7404 15.5189C18.6739 15.0345 19.7364 14.8569 20.7767 15.0111C21.8378 15.1685 22.8202 15.6629 23.5788 16.4215C24.3374 17.1801 24.8318 18.1625 24.9892 19.2236C25.1434 20.2639 24.9658 21.3264 24.4814 22.2599C23.997 23.1934 23.2306 23.9504 22.2912 24.4232C21.3518 24.896 20.2872 25.0606 19.2489 24.8935C18.2106 24.7265 17.2514 24.2362 16.5077 23.4926C15.7641 22.7489 15.2738 21.7897 15.1068 20.7514C14.9397 19.7131 15.1043 18.6485 15.5771 17.7091C16.0499 16.7697 16.8069 16.0033 17.7404 15.5189Z" fill="#FFDE61"/>
<path fill-rule="evenodd" clip-rule="evenodd" d="M24.5 14.5C24.5 13.9477 24.9477 13.5 25.5 13.5H25.51C26.0623 13.5 26.51 13.9477 26.51 14.5C26.51 15.0523 26.0623 15.5 25.51 15.5H25.5C24.9477 15.5 24.5 15.0523 24.5 14.5Z" fill="#FFDE61"/>
<path fill-rule="evenodd" clip-rule="evenodd" d="M20 38C29.9411 38 38 29.9411 38 20C38 10.0589 29.9411 2 20 2C10.0589 2 2 10.0589 2 20C2 29.9411 10.0589 38 20 38ZM20 40C31.0457 40 40 31.0457 40 20C40 8.9543 31.0457 0 20 0C8.9543 0 0 8.9543 0 20C0 31.0457 8.9543 40 20 40Z" fill="#FFDE61"/>
</svg>
