<svg width="40" height="40" viewBox="0 0 40 40" fill="none" xmlns="http://www.w3.org/2000/svg">
<path fill-rule="evenodd" clip-rule="evenodd" d="M24 14C22.6739 14 21.4021 14.5268 20.4645 15.4645C19.5268 16.4021 19 17.6739 19 19V25H21V19C21 18.2043 21.3161 17.4413 21.8787 16.8787C22.4413 16.3161 23.2043 16 24 16C24.7957 16 25.5587 16.3161 26.1213 16.8787C26.6839 17.4413 27 18.2043 27 19V25H29V19C29 17.6739 28.4732 16.4021 27.5355 15.4645C26.5979 14.5268 25.3261 14 24 14ZM24 12C22.1435 12 20.363 12.7375 19.0503 14.0503C17.7375 15.363 17 17.1435 17 19V26C17 26.5523 17.4477 27 18 27H22C22.5523 27 23 26.5523 23 26V19C23 18.7348 23.1054 18.4804 23.2929 18.2929C23.4804 18.1054 23.7348 18 24 18C24.2652 18 24.5196 18.1054 24.7071 18.2929C24.8946 18.4804 25 18.7348 25 19V26C25 26.5523 25.4477 27 26 27H30C30.5523 27 31 26.5523 31 26V19C31 17.1435 30.2625 15.363 28.9497 14.0503C27.637 12.7375 25.8565 12 24 12Z" fill="#FFDE61"/>
<path fill-rule="evenodd" clip-rule="evenodd" d="M9 14C9 13.4477 9.44772 13 10 13H14C14.5523 13 15 13.4477 15 14V26C15 26.5523 14.5523 27 14 27H10C9.44772 27 9 26.5523 9 26V14ZM11 15V25H13V15H11Z" fill="#FFDE61"/>
<path fill-rule="evenodd" clip-rule="evenodd" d="M12 19C11.4477 19 11 19.4477 11 20C11 20.5523 11.4477 21 12 21C12.5523 21 13 20.5523 13 20C13 19.4477 12.5523 19 12 19ZM9 20C9 18.3431 10.3431 17 12 17C13.6569 17 15 18.3431 15 20C15 21.6569 13.6569 23 12 23C10.3431 23 9 21.6569 9 20Z" fill="#FFDE61"/>
<path fill-rule="evenodd" clip-rule="evenodd" d="M20 38C29.9411 38 38 29.9411 38 20C38 10.0589 29.9411 2 20 2C10.0589 2 2 10.0589 2 20C2 29.9411 10.0589 38 20 38ZM20 40C31.0457 40 40 31.0457 40 20C40 8.9543 31.0457 0 20 0C8.9543 0 0 8.9543 0 20C0 31.0457 8.9543 40 20 40Z" fill="#FFDE61"/>
</svg>
